<?xml version="1.0" standalone="no"?>
<!DOCTYPE svg PUBLIC "-//W3C//DTD SVG 20010904//EN"
 "http://www.w3.org/TR/2001/REC-SVG-20010904/DTD/svg10.dtd">
<svg version="1.0" xmlns="http://www.w3.org/2000/svg"
 width="890.000000pt" height="1280.000000pt" viewBox="0 0 890.000000 1280.000000"
 preserveAspectRatio="xMidYMid meet">
<metadata>
Created by potrace 1.15, written by Peter Selinger 2001-2017
</metadata>
<g transform="translate(0.000000,1280.000000) scale(0.100000,-0.100000)"
fill="#ffffff" stroke="none">
<path d="M5517 12793 c-18 -17 3 -116 38 -184 35 -66 35 -84 5 -156 -43 -105
-62 -146 -143 -315 -42 -86 -87 -183 -101 -215 -22 -53 -64 -136 -93 -188 -7
-11 -44 -90 -84 -175 -39 -85 -114 -242 -165 -349 -52 -106 -94 -195 -94 -197
0 -3 -36 -83 -80 -178 -44 -96 -80 -177 -80 -181 0 -6 -86 -190 -100 -215 -16
-25 -87 -173 -220 -455 -198 -420 -191 -407 -220 -402 -14 3 -45 13 -70 22
-25 9 -85 28 -135 40 -49 13 -116 33 -147 44 -120 42 -215 39 -269 -7 -53 -44
-199 -213 -251 -290 -60 -89 -138 -242 -138 -270 0 -11 -4 -24 -10 -27 -5 -3
-10 -22 -10 -41 0 -21 4 -33 10 -29 6 3 10 20 10 38 0 23 3 28 11 20 12 -12 8
-58 -10 -148 -5 -27 -10 -99 -11 -160 -2 -118 -12 -112 -25 14 -7 71 -12 80
-31 61 -8 -8 -19 -8 -38 0 -15 5 -60 10 -99 10 -40 0 -121 10 -182 21 -168 32
-175 32 -175 20 0 -6 11 -16 26 -21 47 -18 92 -168 65 -219 -10 -17 -10 -26 0
-37 8 -10 8 -14 0 -14 -6 0 -11 -12 -11 -27 0 -33 -20 -75 -37 -81 -7 -2 -17
7 -22 20 -5 13 -17 30 -26 38 -16 14 -17 13 -11 -8 9 -28 -11 -54 -55 -73 -27
-11 -33 -10 -51 9 -16 16 -25 18 -38 10 -26 -17 -46 -4 -54 34 l-7 33 -15 -27
c-8 -16 -17 -28 -19 -28 -3 0 -11 15 -19 32 -14 33 -15 32 -30 -14 -3 -10 -12
-18 -20 -18 -10 0 -13 6 -9 16 5 13 0 14 -28 9 -44 -7 -60 4 -68 52 -9 44 9
251 23 272 15 23 24 -13 25 -91 1 -41 5 -68 12 -68 7 0 9 34 7 100 -3 100 -3
100 21 100 20 0 21 2 11 15 -7 8 -18 15 -24 15 -7 0 -23 11 -36 25 -27 29 -85
43 -111 26 -11 -6 -31 -11 -46 -11 -39 0 -88 -32 -119 -79 -14 -22 -34 -43
-43 -46 -9 -2 -83 -16 -166 -30 -349 -59 -372 -64 -423 -105 -67 -52 -184
-228 -203 -304 -15 -60 -6 -189 15 -221 9 -13 16 -31 16 -39 0 -30 49 -125 72
-140 12 -8 64 -25 113 -37 50 -12 124 -39 165 -60 97 -48 148 -61 239 -63 73
-1 74 -1 84 -31 15 -48 66 -94 121 -110 31 -10 93 -15 166 -15 118 0 137 -4
121 -24 -6 -6 -12 -61 -15 -121 -3 -61 -8 -158 -12 -217 -5 -105 6 -188 26
-188 14 0 13 43 -1 57 -7 7 -8 17 -1 29 5 11 6 28 1 39 -19 48 -8 152 24 222
7 16 7 30 -1 48 -7 15 -9 43 -6 66 7 42 24 64 24 31 0 -12 11 -24 30 -32 17
-7 41 -26 53 -42 l23 -28 47 14 c59 18 97 42 97 61 0 22 61 87 77 81 8 -3 16
2 19 12 3 9 9 24 14 34 7 12 3 20 -13 32 -20 14 -20 16 -5 26 10 6 19 30 23
65 4 30 10 55 13 55 3 0 13 -7 23 -16 16 -15 24 -13 107 25 49 23 94 41 101
41 6 0 23 7 36 16 50 32 135 10 135 -35 0 -27 67 -117 121 -163 28 -24 93 -79
144 -123 90 -78 291 -199 375 -226 43 -13 76 -27 113 -45 54 -27 162 -12 225
31 20 14 42 25 48 25 15 0 47 -75 47 -111 0 -21 8 -36 23 -45 12 -9 38 -53 59
-102 21 -48 46 -98 56 -111 21 -26 25 -81 8 -98 -18 -18 0 -35 30 -28 21 5 24
4 14 -6 -19 -19 -16 -27 10 -31 18 -2 23 -10 25 -47 2 -24 10 -50 18 -58 21
-21 87 -137 132 -233 95 -203 173 -372 213 -460 23 -52 66 -147 95 -211 182
-397 280 -613 309 -679 60 -137 226 -494 271 -583 70 -138 334 -728 368 -822
l21 -60 -37 -75 c-42 -84 -48 -138 -20 -163 10 -10 23 -17 29 -17 16 0 47 39
58 73 7 21 18 33 35 37 15 4 26 14 28 27 2 12 14 29 27 37 14 10 29 33 36 58
15 59 39 85 354 398 424 420 496 507 729 875 97 154 293 542 340 672 14 40 34
90 44 110 11 21 40 103 67 183 26 80 56 168 66 195 10 28 24 77 32 110 8 33
26 105 41 160 14 55 40 165 56 245 90 428 116 595 145 934 15 177 15 179 47
220 73 91 110 155 103 176 -4 13 1 32 14 53 12 20 23 60 26 102 4 39 11 88 17
109 7 29 6 46 -3 63 -11 20 -11 26 1 33 8 6 115 10 238 10 l222 0 0 -24 c0
-47 20 -49 126 -15 55 17 146 41 203 53 167 34 153 46 -127 117 -200 50 -218
48 -198 -18 6 -20 3 -21 -81 -29 -113 -9 -478 2 -503 16 -14 8 -26 7 -41 0
-11 -7 -23 -9 -27 -6 -3 3 -11 126 -18 274 -18 371 -51 623 -131 992 -47 222
-91 387 -130 490 -13 36 -28 85 -34 109 -23 102 -300 702 -397 859 -79 128
-189 289 -235 344 -138 166 -272 320 -306 351 -22 21 -41 41 -41 46 0 7 -231
203 -315 267 -22 17 -94 67 -160 112 -118 79 -198 149 -323 285 -40 43 -69 67
-78 63 -9 -3 -21 9 -35 37 -43 84 -71 112 -92 90z m77 -149 c3 -9 6 -23 6 -32
-1 -15 -3 -14 -15 2 -17 22 -20 46 -6 46 5 0 12 -7 15 -16z m96 -94 c0 -29
196 -199 310 -267 30 -18 66 -44 80 -56 14 -13 63 -51 110 -86 340 -247 550
-485 865 -983 45 -70 183 -348 238 -478 73 -171 243 -725 266 -865 5 -33 25
-152 45 -265 39 -230 66 -470 66 -596 l0 -84 35 0 c23 0 37 -6 43 -17 5 -10
13 -100 17 -200 l7 -183 -66 0 -66 0 0 208 c0 521 -54 957 -173 1398 -20 72
-54 185 -77 250 -23 66 -45 133 -50 149 -52 180 -233 580 -324 717 -276 415
-409 574 -661 792 -186 160 -219 185 -469 355 -73 50 -195 143 -215 165 -14
14 -21 31 -18 40 7 17 37 22 37 6z m22 -129 c35 -27 90 -66 122 -86 80 -51
266 -186 356 -258 98 -78 467 -449 505 -507 16 -25 45 -64 65 -87 91 -107 239
-341 324 -511 35 -69 129 -290 146 -342 5 -14 34 -97 65 -185 52 -148 69 -199
94 -280 6 -16 13 -48 16 -70 4 -22 12 -56 19 -75 7 -19 21 -75 30 -125 10 -49
26 -133 37 -185 54 -271 77 -520 86 -934 l6 -319 -44 8 c-24 5 -96 9 -159 10
-90 1 -123 6 -153 20 -37 19 -37 19 -69 -5 l-32 -23 -620 7 c-819 9 -1547 25
-1605 36 -28 5 -47 5 -49 -1 -6 -14 -42 -11 -58 6 -10 9 -34 15 -64 15 -27 0
-52 5 -55 10 -9 14 -51 13 -76 -2 -17 -11 -22 -10 -35 6 -20 28 -17 66 10 127
23 49 25 64 21 169 -6 186 -23 341 -43 400 -45 130 -95 199 -166 230 -22 10
-60 34 -83 54 l-42 37 16 37 c8 20 64 137 124 260 60 123 109 225 109 227 0 6
89 194 202 425 61 124 116 241 123 260 15 41 127 281 270 580 57 118 118 251
135 295 17 44 38 91 46 105 22 36 115 233 150 315 16 38 46 101 67 140 20 38
58 114 85 167 26 54 50 98 53 98 3 0 35 -22 71 -49z m-2032 -2746 c-7 -9 6
-37 47 -101 78 -123 125 -214 166 -319 46 -122 57 -157 57 -188 0 -38 -86
-204 -116 -224 -32 -21 -58 -8 -62 31 -2 14 -8 26 -14 26 -9 0 -8 -40 3 -80 3
-10 -3 -15 -15 -15 -13 0 -23 11 -30 32 -20 58 -26 47 -26 -49 0 -85 3 -99 25
-132 l24 -36 -22 0 c-33 0 -57 21 -63 55 -3 17 -9 48 -14 70 -5 22 -10 60 -10
85 0 57 -19 92 -21 40 -2 -53 1 -150 6 -195 l5 -40 -14 30 c-7 17 -19 71 -25
120 -20 148 -21 155 -33 155 -12 0 -6 -240 7 -275 6 -15 5 -17 -4 -9 -15 14
-40 151 -48 262 -3 45 -10 82 -16 82 -6 0 -8 -58 -5 -171 7 -196 -8 -219 -22
-36 -6 87 -5 141 5 214 17 117 19 173 5 173 -5 0 -10 -8 -10 -17 0 -10 -7 -38
-16 -63 -11 -31 -18 -101 -23 -222 -7 -181 -19 -246 -23 -122 -4 124 3 247 18
334 21 113 81 303 134 418 11 23 20 49 20 57 0 17 37 79 67 111 23 25 64 24
43 -1z m175 -25 c39 -11 82 -20 96 -20 14 0 29 -3 33 -7 10 -10 78 -33 99 -33
9 0 27 -5 40 -12 12 -6 28 -14 36 -18 21 -10 25 -30 6 -30 -12 0 -15 -6 -10
-20 7 -22 -40 -136 -91 -221 -19 -31 -34 -64 -34 -73 0 -26 -14 -18 -29 17
-30 71 -60 144 -71 175 -21 55 -68 112 -93 112 -16 0 -35 18 -69 69 -27 38
-48 72 -48 75 0 12 67 5 135 -14z m434 -154 c26 -14 60 -46 48 -46 -6 0 -76
46 -86 56 -9 9 11 3 38 -10z m-13 -53 c40 -44 113 -156 139 -214 33 -73 46
-188 25 -214 -21 -25 -45 -18 -55 18 -6 17 -14 32 -20 32 -5 0 -11 -15 -13
-32 -2 -25 -8 -33 -23 -33 -10 0 -19 -4 -19 -10 0 -17 -48 -11 -58 7 -9 14
-11 14 -21 -6 -10 -18 -19 -22 -53 -19 l-41 3 -32 95 -32 95 34 68 c18 37 42
92 54 121 36 97 78 129 115 89z m144 -35 c72 -74 140 -236 140 -334 0 -32 -2
-55 -5 -52 -3 3 -12 45 -21 93 -19 108 -56 192 -117 268 -51 62 -49 77 3 25z
m-1091 -72 c-21 -46 -39 -91 -39 -99 0 -9 -4 -19 -10 -22 -5 -3 -10 -15 -10
-26 0 -10 -4 -27 -9 -37 -24 -45 -51 -248 -51 -378 0 -13 -4 -24 -10 -24 -13
0 -13 99 2 216 9 76 9 99 -2 119 -11 21 -10 32 15 87 40 92 133 248 147 248 4
0 -11 -38 -33 -84z m1 -112 c0 -8 -5 -12 -10 -9 -6 4 -8 11 -5 16 9 14 15 11
15 -7z m-24 -81 c-11 -11 -19 6 -11 24 8 17 8 17 12 0 3 -10 2 -21 -1 -24z
m775 -181 c-11 -39 -20 -8 -26 91 l-5 82 19 -74 c11 -43 16 -84 12 -99z m-795
100 c-12 -11 -18 7 -10 30 l8 23 4 -23 c2 -13 1 -26 -2 -30z m-16 -98 c0 -34
-4 -53 -10 -49 -18 11 -12 105 7 105 2 0 3 -25 3 -56z m-1078 -45 c14 -7 17
-14 10 -21 -6 -6 -15 -7 -22 -3 -17 10 -31 55 -23 68 5 8 9 4 11 -11 2 -12 13
-27 24 -33z m1788 11 c0 -11 -4 -20 -10 -20 -5 0 -10 9 -10 20 0 11 5 20 10
20 6 0 10 -9 10 -20z m208 -2 c17 -17 15 -58 -5 -80 -23 -25 -79 -24 -93 2
-14 26 1 54 38 74 33 19 45 19 60 4z m-938 -104 c0 -27 -4 -43 -10 -39 -5 3
-10 24 -10 46 0 21 5 39 10 39 6 0 10 -21 10 -46z m-1176 -5 c31 -24 32 -45 6
-78 -17 -20 -23 -21 -36 -10 -13 10 -17 10 -24 -1 -7 -12 -13 -10 -33 8 -45
42 -77 25 -46 -25 12 -19 18 -37 15 -40 -4 -4 -39 10 -79 31 -65 33 -79 37
-137 34 -41 -2 -64 -7 -63 -14 1 -6 -18 -26 -42 -44 -52 -39 -59 -58 -13 -34
39 20 148 32 148 16 0 -7 -18 -24 -40 -38 -22 -14 -42 -36 -46 -48 -4 -11 -15
-27 -25 -34 -11 -7 -19 -17 -19 -23 0 -16 36 -10 63 11 42 33 107 51 188 52
60 0 104 -8 220 -42 79 -24 169 -47 199 -51 66 -11 218 -57 225 -69 3 -5 -9
-6 -28 -3 -40 6 -107 -20 -107 -41 0 -13 7 -12 45 4 57 24 75 18 75 -26 0 -34
-28 -104 -41 -104 -14 0 -39 44 -39 67 0 13 -4 23 -9 23 -11 0 -42 -82 -48
-131 -7 -51 -19 -58 -27 -14 -9 44 -17 48 -55 29 -29 -14 -31 -19 -31 -67 0
-40 -3 -48 -12 -39 -18 18 -31 14 -25 -8 3 -11 1 -20 -3 -20 -14 0 -40 43 -40
66 0 12 -6 27 -14 33 -12 10 -18 7 -31 -19 -12 -24 -21 -30 -36 -25 -13 4 -21
1 -25 -10 -9 -22 -24 0 -24 35 0 28 -34 90 -50 90 -17 0 -12 -147 6 -181 8
-17 14 -37 12 -45 -2 -13 -9 -11 -38 8 -39 26 -66 74 -75 131 -4 23 -11 37
-21 37 -12 0 -13 -9 -8 -50 4 -27 3 -50 -1 -50 -18 0 -55 53 -55 79 0 30 -32
67 -49 56 -23 -13 -12 -90 20 -139 16 -27 27 -51 23 -55 -4 -3 -9 0 -11 7 -3
6 -9 10 -14 6 -5 -3 -5 -13 1 -25 7 -12 7 -19 1 -19 -6 0 -17 12 -25 28 -17
33 -66 80 -66 63 0 -6 7 -26 16 -42 8 -17 14 -35 12 -41 -6 -16 -57 74 -64
112 -4 17 -12 29 -18 27 -12 -4 -13 -36 -2 -82 6 -25 3 -22 -18 15 -14 25 -25
53 -26 62 0 10 -9 22 -20 28 -12 7 -22 25 -26 50 -5 30 -10 38 -19 30 -6 -5
-15 -7 -18 -3 -11 10 -8 51 3 58 6 3 10 18 10 32 0 15 -3 23 -7 19 -15 -15
-33 -84 -33 -128 0 -27 -4 -48 -10 -48 -6 0 -10 28 -10 65 0 37 -4 65 -10 65
-6 0 -10 -39 -10 -96 0 -79 3 -95 14 -91 12 5 13 -1 9 -28 -6 -37 8 -67 55
-117 14 -15 22 -31 19 -35 -10 -10 -74 55 -103 104 -14 22 -31 43 -38 46 -16
6 -18 18 -47 247 -1 8 -7 -23 -14 -70 -12 -83 -12 -84 -20 -42 -9 50 -18 53
-35 12 -17 -42 -30 -37 -30 11 0 24 -4 38 -10 34 -5 -3 -10 -37 -10 -76 0 -38
-4 -69 -8 -69 -5 0 -14 31 -21 70 -12 67 -31 104 -31 61 0 -12 -4 -21 -10 -21
-14 0 -12 141 3 167 40 72 67 133 77 170 23 90 111 121 596 207 174 30 185 31
218 5z m701 -76 c-5 -20 -2 -24 12 -21 12 2 22 -5 30 -22 11 -25 11 -24 12 11
1 30 5 37 25 41 20 4 25 0 30 -24 4 -20 11 -28 26 -28 11 0 20 7 20 15 0 8 9
15 20 15 11 0 20 -6 20 -14 0 -8 10 -18 21 -21 17 -6 19 -9 8 -16 -8 -5 -25
-9 -39 -9 -40 0 -2 -20 40 -20 44 0 69 -15 54 -30 -14 -14 -106 -41 -161 -47
-29 -4 -43 -10 -46 -24 -7 -27 -133 -87 -149 -71 -9 9 -9 19 0 45 7 18 12 45
12 60 0 14 5 29 10 32 6 3 10 17 10 31 0 14 5 34 11 45 7 14 7 24 0 32 -6 8
-6 18 -1 27 5 8 3 24 -6 41 -22 44 -16 47 17 10 23 -25 29 -39 24 -58z m1717
77 c42 -12 57 -39 32 -57 -10 -7 -23 -13 -30 -13 -7 0 -25 -15 -42 -34 -34
-39 -47 -96 -37 -162 6 -42 5 -45 -22 -55 -32 -12 -124 7 -130 27 -2 7 12 22
32 34 19 12 35 28 35 36 0 8 5 14 10 14 15 0 12 43 -4 66 -13 17 -27 19 -138
19 -132 0 -154 -6 -211 -59 -24 -22 -37 -26 -92 -26 -35 0 -66 4 -69 9 -16 26
112 97 263 146 163 52 331 75 403 55z m38 -145 c0 -28 -24 -65 -42 -65 -23 0
-25 42 -2 64 19 20 44 21 44 1z m-1049 -63 c30 -11 89 -23 130 -27 40 -4 83
-11 94 -15 l20 -8 -20 -7 c-66 -22 -68 -40 -5 -51 28 -5 51 -13 50 -19 -1 -14
-79 -14 -248 -2 -148 11 -192 4 -192 -27 0 -35 40 -41 252 -41 115 0 208 -3
208 -6 0 -14 -64 -32 -108 -31 -30 0 -50 -5 -57 -15 -8 -11 -35 -15 -105 -16
-52 -1 -98 -6 -102 -12 -4 -6 -13 -2 -22 10 -14 19 -15 19 -21 2 -4 -10 -20
-24 -36 -33 -34 -17 -37 -30 -9 -39 15 -5 19 -12 14 -31 -5 -18 -2 -24 9 -24
9 0 19 5 22 10 4 6 11 7 17 4 7 -4 5 -10 -6 -16 -9 -5 -16 -15 -16 -22 0 -8
-6 -19 -14 -25 -8 -7 -18 -26 -21 -42 -8 -35 -13 -36 -163 -49 -71 -6 -122 -6
-138 0 -16 7 -31 6 -43 -1 -22 -14 -111 22 -111 45 0 8 -5 18 -11 21 -6 4 -9
-3 -7 -21 5 -42 -19 -40 -62 5 -22 23 -44 41 -50 41 -8 0 -9 11 -5 30 8 35
-14 180 -26 180 -5 0 -9 -35 -9 -77 l-1 -78 -19 24 c-25 29 -25 77 -1 134 15
35 27 47 60 60 23 10 71 35 107 57 37 22 78 43 93 46 14 4 30 9 35 12 5 3 37
6 72 8 44 2 82 11 121 30 32 14 74 30 93 35 52 12 167 2 231 -19z m824 7 c5
-5 -7 -9 -30 -9 -22 0 -85 -3 -139 -7 -77 -5 -97 -4 -92 6 5 7 18 16 30 21 25
11 217 2 231 -11z m253 -100 c7 -12 11 -23 8 -26 -8 -9 -36 17 -36 33 0 20 13
17 28 -7z m107 -5 c20 -21 14 -27 -19 -18 -26 6 -32 15 -19 27 10 11 20 8 38
-9z m80 -14 c3 -5 -1 -10 -9 -10 -9 0 -16 5 -16 10 0 6 4 10 9 10 6 0 13 -4
16 -10z m-2104 -46 l28 -27 -20 -38 c-14 -28 -19 -59 -19 -113 0 -41 -4 -78
-10 -81 -5 -3 -10 -28 -10 -54 0 -37 7 -58 30 -92 16 -24 30 -46 30 -49 0 -4
-15 -4 -33 -2 -29 3 -35 -1 -60 -38 -15 -23 -27 -46 -27 -51 0 -17 -38 -85
-55 -99 -24 -20 -28 -6 -5 23 22 27 38 87 24 87 -5 0 -18 -17 -29 -37 -26 -48
-49 -57 -33 -13 21 63 -31 68 -58 5 -8 -19 -23 -41 -34 -47 -11 -7 -20 -18
-20 -24 0 -15 -27 -37 -40 -32 -10 3 52 111 89 154 13 15 32 24 51 24 20 0 30
5 30 15 0 21 16 19 41 -6 17 -17 23 -18 36 -8 18 15 14 62 -12 129 -14 38 -15
56 -6 130 12 93 27 174 42 233 12 45 32 48 70 11z m1397 19 c-10 -2 -26 -2
-35 0 -10 3 -2 5 17 5 19 0 27 -2 18 -5z m4612 -34 c-39 -11 -100 -10 -100 1
0 19 43 27 84 16 38 -9 39 -10 16 -17z m-4182 -34 c16 -5 15 -26 -1 -48 -18
-25 -117 -32 -117 -8 -1 40 -16 44 -54 11 -47 -41 -47 -60 -1 -60 42 0 95 -25
95 -44 0 -17 -117 -40 -153 -31 -23 6 -57 -15 -57 -35 0 -18 40 -30 102 -30
l63 0 -39 -33 c-44 -37 -42 -57 5 -57 26 0 29 -3 29 -30 0 -39 -30 -52 -125
-52 -66 -1 -229 36 -277 62 -10 6 -24 10 -31 10 -41 0 -64 27 -121 142 -32 65
-56 121 -53 124 3 4 19 2 34 -3 17 -6 41 -6 63 0 19 5 106 10 192 11 110 1
161 5 170 14 6 6 16 12 22 12 5 0 20 10 33 22 34 31 154 44 221 23z m564 -3
c-1 -9 6 -10 25 -5 41 12 148 7 183 -7 23 -10 33 -10 44 -1 16 14 51 1 58 -21
3 -8 9 -5 17 10 l12 22 292 -1 c161 0 310 -4 332 -8 22 -5 38 -10 35 -11 -25
-9 -509 -16 -568 -8 -82 12 -96 6 -106 -44 -6 -30 -7 -31 -26 -13 -11 10 -20
13 -20 7 0 -6 12 -19 28 -29 32 -21 43 -34 38 -48 -2 -5 -8 -19 -12 -29 -6
-15 -4 -18 8 -13 25 9 29 -15 34 -213 4 -185 0 -240 -17 -240 -12 0 -11 34 2
47 7 7 5 15 -6 27 -24 23 -35 11 -35 -39 0 -49 -8 -77 -20 -70 -4 3 -6 41 -4
85 3 47 0 89 -7 101 -9 17 -7 21 10 26 26 7 26 15 0 39 -29 26 -39 6 -39 -88
0 -42 -4 -79 -9 -83 -5 -3 -19 9 -31 26 -28 38 -37 29 -43 -41 -10 -119 -70
-289 -140 -397 -37 -57 -67 -85 -54 -48 9 23 -12 29 -52 15 -33 -11 -44 -9
-89 10 -59 26 -87 52 -78 76 5 13 9 14 22 4 11 -10 18 -10 26 -2 18 18 25 14
32 -18 6 -32 23 -38 59 -18 12 6 36 14 52 18 21 4 29 11 27 24 -4 22 26 69 39
60 18 -10 39 18 39 52 0 36 -14 53 -24 28 -8 -22 -32 -3 -40 32 -4 14 -17 39
-28 55 -17 23 -19 32 -10 41 7 7 12 24 12 39 0 30 -24 57 -35 39 -3 -5 -1 -10
4 -10 6 0 11 -13 11 -30 0 -20 -5 -30 -15 -30 -12 0 -15 13 -15 58 0 63 -12
86 -48 97 -21 6 -23 4 -17 -17 l6 -23 -19 25 c-17 20 -23 22 -36 11 -13 -11
-15 -9 -13 15 1 15 -4 29 -10 31 -10 4 -13 -24 -13 -115 0 -152 -9 -242 -25
-242 -17 0 -48 37 -41 49 4 6 13 8 21 4 21 -7 19 10 -6 41 l-20 26 20 0 c27 0
27 26 0 40 -14 8 -19 19 -17 38 2 15 -1 29 -7 32 -6 3 -12 -18 -15 -50 -4 -40
-8 -50 -14 -37 -5 10 -6 50 -3 88 6 67 5 69 -24 89 -35 26 -38 43 -5 34 24 -6
25 -5 13 25 -7 19 -22 34 -39 40 -37 13 -41 55 -4 45 19 -4 26 -1 31 17 11 34
9 119 -4 132 -6 6 -11 24 -11 39 0 21 -7 32 -25 40 -27 12 -33 28 -11 28 10 0
14 9 13 27 -3 41 31 44 39 4 4 -16 15 -38 25 -47 11 -10 19 -30 19 -51 0 -18
5 -33 10 -33 12 0 13 64 1 88 -5 9 -14 38 -20 64 -17 76 4 101 48 54 18 -19
21 -30 16 -60 -7 -34 -2 -42 23 -33 4 1 7 27 7 57 0 47 3 55 20 58 11 1 33 -9
48 -23 l28 -27 -7 26 c-8 33 0 33 38 1 30 -25 54 -25 44 1 -3 7 3 18 12 24 22
13 58 8 54 -8z m-439 -2 c8 0 8 -3 0 -11 -7 -7 -23 -9 -39 -5 -22 6 -25 9 -13
17 7 5 20 7 27 4 8 -3 19 -5 25 -5z m65 -18 c4 -27 -14 -29 -28 -3 -14 27 -13
33 8 29 9 -2 18 -13 20 -26z m2032 3 c107 -3 233 -5 279 -5 64 0 82 -3 74 -11
-15 -15 -505 -13 -616 2 -102 15 -108 30 -10 24 43 -3 166 -7 273 -10z m650
-35 l22 -30 -29 -13 c-41 -18 -83 -46 -131 -90 -48 -43 -72 -44 -86 -4 -14 38
9 58 108 100 43 18 77 37 77 42 0 6 -22 13 -48 16 l-48 6 57 1 c52 2 58 0 78
-28z m442 -7 c-3 -29 0 -33 20 -33 28 0 93 49 66 50 -10 0 -18 5 -18 10 0 6
25 10 55 10 l55 0 0 -37 c0 -63 -63 -133 -118 -133 -22 0 -23 -3 -16 -45 6
-44 6 -45 -20 -45 -53 0 -116 52 -116 94 0 20 -31 36 -68 36 -16 0 -37 9 -47
20 -12 13 -29 20 -43 18 -19 -2 -27 -14 -42 -58 -19 -57 -89 -134 -113 -124
-7 2 -20 -14 -29 -36 -9 -23 -23 -40 -32 -40 -9 0 -16 -7 -16 -16 0 -11 6 -14
20 -10 11 3 30 9 43 12 l22 6 -23 -24 c-12 -13 -20 -27 -17 -30 3 -3 39 -3 80
0 82 5 98 -5 75 -48 -17 -32 -55 -42 -96 -25 -19 8 -41 12 -50 8 -8 -3 -56 3
-105 13 l-90 18 66 64 c58 57 65 68 60 92 -5 24 2 37 49 90 59 66 67 94 45
144 -25 55 -18 57 203 54 l203 -3 -3 -32z m-3187 7 c3 -5 4 -14 0 -20 -8 -13
-35 -1 -35 16 0 16 26 19 35 4z m1761 -11 c18 -9 32 -26 39 -46 9 -34 19 -41
30 -23 13 22 33 8 40 -27 10 -48 8 -238 -3 -278 -5 -16 -15 -30 -23 -30 -8 0
-52 -39 -98 -88 -46 -48 -86 -85 -88 -83 -3 2 14 31 36 64 23 33 41 63 41 68
0 4 -19 -10 -42 -32 -84 -78 -108 -97 -113 -93 -2 3 9 22 26 43 45 54 28 55
-29 2 -53 -50 -81 -63 -40 -18 29 32 61 93 52 101 -3 3 -13 -5 -23 -18 -22
-33 -102 -111 -113 -111 -5 0 -6 5 -3 10 8 13 -11 13 -36 0 -28 -16 -23 -2 15
40 29 32 34 44 32 82 -3 63 -26 62 -91 -4 -56 -56 -193 -133 -290 -162 l-48
-15 32 33 c17 17 31 40 31 49 0 9 5 17 10 17 6 0 10 11 10 25 0 14 -4 25 -10
25 -5 0 -10 -11 -10 -25 0 -14 -4 -25 -10 -25 -5 0 -10 -7 -10 -15 0 -18 -16
-20 -24 -2 -4 8 -9 7 -18 -7 -7 -10 -21 -28 -31 -40 -17 -20 -17 -19 -1 24 9
25 21 55 27 68 8 16 7 26 -1 34 -9 9 -12 7 -12 -9 0 -12 -4 -25 -10 -28 -5 -3
-10 -14 -10 -24 0 -11 -9 -29 -20 -42 -21 -26 -25 -23 -11 13 4 13 5 32 1 43
-7 17 -9 15 -16 -15 -6 -29 -9 -31 -15 -15 -4 11 -8 33 -8 48 -1 34 -21 26
-21 -8 0 -29 -20 -75 -32 -75 -6 0 -6 17 -1 43 14 73 8 285 -12 372 -9 44 -19
91 -22 105 l-4 25 179 2 c177 2 180 1 186 -20 6 -21 7 -21 20 -4 12 16 14 13
20 -23 8 -51 26 -43 26 11 l0 39 42 0 c36 0 80 8 183 34 40 10 241 -1 271 -15z
m-1831 -18 c-3 -6 -11 -11 -17 -11 -6 0 -6 6 2 15 14 17 26 13 15 -4z m-818
-111 c54 -107 57 -130 20 -152 -44 -28 -67 -22 -119 32 -45 47 -60 82 -39 95
6 3 24 30 41 61 18 30 37 54 44 52 6 -2 30 -41 53 -88z m797 48 c18 -42 33
-124 41 -215 5 -62 4 -73 -9 -73 -20 0 -20 -4 -1 -40 8 -16 18 -60 21 -99 7
-69 6 -70 -25 -99 -26 -23 -29 -31 -17 -35 8 -3 18 -2 21 3 12 20 26 10 15
-10 -8 -15 -8 -30 2 -55 9 -28 10 -45 0 -80 -7 -25 -12 -54 -12 -65 0 -11 -4
-20 -10 -20 -5 0 -10 5 -10 12 0 9 -3 9 -12 0 -9 -9 -7 -16 6 -31 20 -22 15
-79 -11 -119 -8 -13 -12 -30 -9 -37 8 -21 -16 -73 -38 -83 -20 -9 -20 -9 2
-21 21 -11 21 -13 7 -41 -8 -16 -14 -33 -14 -37 2 -8 0 -16 -21 -73 -7 -19
-17 -50 -24 -68 -14 -40 -25 -37 -55 17 -17 31 -20 46 -12 54 17 17 13 27 -9
27 -11 0 -20 5 -20 10 0 6 5 10 10 10 6 0 10 5 10 10 0 6 -7 10 -14 10 -8 0
-26 15 -39 33 -24 31 -127 252 -127 271 0 5 -7 17 -16 27 -15 17 -12 23 45 86
118 130 162 219 176 357 4 38 13 83 20 100 14 34 35 138 35 175 0 13 9 34 20
48 11 14 20 33 20 42 0 18 18 41 33 41 4 0 14 -15 21 -32z m-1047 -3 c8 -22
-4 -30 -22 -15 -12 10 -15 10 -15 -4 0 -9 -4 -16 -10 -16 -14 0 -13 23 2 38
17 17 37 15 45 -3z m3572 -30 c39 -20 44 -19 30 6 -9 17 -8 20 3 17 8 -3 12
-17 10 -38 -1 -18 4 -43 13 -56 14 -22 14 -24 -7 -28 -13 -3 -97 -7 -188 -11
-91 -3 -210 -14 -265 -24 -55 -10 -104 -15 -109 -11 -17 16 6 30 49 30 24 0
47 5 50 10 3 6 -4 10 -18 10 -58 0 -87 12 -87 36 0 27 16 37 85 53 137 32 378
36 434 6z m-2407 -10 c0 -5 -5 -11 -11 -13 -6 -2 -11 4 -11 13 0 9 5 15 11 13
6 -2 11 -8 11 -13z m3319 -45 c44 -24 11 -83 -51 -92 -37 -5 -40 42 -6 77 28
28 30 29 57 15z m-3298 -107 c-10 -25 -28 -7 -31 31 -5 62 8 78 23 27 8 -24
11 -50 8 -58z m-1953 68 c0 -11 -4 -23 -10 -26 -6 -4 -10 5 -10 19 0 14 5 26
10 26 6 0 10 -9 10 -19z m-1167 -35 c6 -16 -2 -28 -14 -20 -12 7 -11 34 0 34
5 0 11 -6 14 -14z m6148 4 c20 -11 27 -40 9 -40 -5 0 -10 5 -10 10 0 6 -11 10
-24 10 -26 0 -40 12 -29 24 9 9 32 7 54 -4z m109 -50 c0 -5 -5 -10 -11 -10 -5
0 -7 5 -4 10 3 6 8 10 11 10 2 0 4 -4 4 -10z m-4312 -16 c-4 -19 -54 -51 -64
-41 -10 9 35 57 53 57 8 0 13 -7 11 -16z m-1558 -55 c0 -15 -12 -11 -37 13
-33 31 -28 43 7 18 17 -12 30 -26 30 -31z m1260 11 c0 -16 5 -30 10 -30 6 0
10 6 10 14 0 28 25 36 79 26 36 -7 59 -6 72 1 16 8 21 6 29 -16 6 -15 10 -37
10 -51 0 -30 17 -32 22 -2 4 28 26 35 34 11 3 -10 10 -26 15 -35 5 -10 9 -26
9 -37 0 -21 39 -74 40 -53 0 7 -5 23 -11 35 -9 16 -9 22 0 25 18 6 13 19 -10
25 -17 5 -20 12 -17 54 2 36 7 49 21 51 14 3 17 -4 17 -38 0 -73 30 -99 74
-65 29 22 45 18 56 -11 9 -22 15 -25 37 -21 30 6 73 -17 73 -39 0 -21 -21 -17
-27 6 -3 11 -14 20 -24 20 -24 0 -24 -12 1 -35 26 -23 25 -35 -1 -35 -18 0
-20 -4 -14 -22 13 -44 10 -62 -13 -74 -35 -17 -45 -31 -38 -49 5 -14 11 -12
37 14 32 32 57 39 76 20 6 -6 17 -8 24 -4 8 6 4 12 -14 21 -22 12 -25 20 -24
51 3 39 23 56 33 28 4 -9 -1 -24 -11 -35 -10 -11 -13 -20 -7 -20 6 0 14 5 17
10 3 6 17 10 31 10 22 0 24 4 24 43 -1 38 -2 40 -15 23 -13 -17 -15 -16 -29
19 -9 21 -16 39 -16 40 0 2 15 7 33 10 17 4 39 14 49 22 20 18 33 1 18 -26 -5
-11 -10 -30 -9 -43 l0 -23 9 23 c5 12 12 22 15 22 8 0 65 -119 65 -137 0 -10
-7 -31 -15 -47 -8 -15 -15 -37 -15 -47 0 -17 3 -18 20 -9 12 7 20 21 20 38 l1
27 19 -25 c10 -14 28 -37 40 -52 30 -39 26 -71 -15 -107 -42 -37 -95 -65 -95
-52 0 6 14 20 30 33 17 12 28 28 26 35 -3 7 -1 15 4 18 6 4 10 11 10 17 0 16
-38 -21 -45 -43 -7 -22 -74 -71 -87 -63 -18 11 -6 53 27 95 33 41 49 77 23 51
-17 -17 -38 4 -38 39 0 37 -9 36 -45 -1 -29 -30 -28 -34 11 -31 11 1 26 -4 32
-12 10 -11 6 -22 -18 -52 -16 -21 -30 -44 -30 -51 0 -7 -4 -15 -10 -19 -16
-10 -106 42 -137 79 -21 26 -32 33 -43 26 -8 -5 -23 -10 -32 -10 -14 0 -16 6
-12 33 l6 32 -21 -25 c-18 -21 -22 -23 -31 -10 -5 8 -7 22 -3 30 11 26 5 63
-21 123 -14 32 -26 69 -26 82 0 28 -12 32 -30 10 -10 -12 -10 -19 -2 -27 7 -7
12 -20 12 -30 0 -9 9 -35 21 -57 21 -41 19 -81 -5 -81 -23 0 -66 25 -66 38 0
10 8 12 30 7 31 -7 43 8 15 19 -8 3 -15 14 -15 25 0 23 -17 31 -52 24 -29 -6
-48 14 -27 28 8 5 24 9 37 9 25 0 28 10 10 28 -10 10 -10 17 -1 31 15 25 8 31
-39 31 -39 0 -46 8 -27 27 6 6 9 17 7 24 -9 28 -42 -43 -40 -87 1 -24 -2 -44
-6 -44 -15 0 -31 83 -20 103 5 10 7 22 3 25 -9 9 -35 -28 -35 -50 0 -10 -4
-18 -8 -18 -10 0 -32 45 -32 65 0 9 -10 13 -27 12 -25 -2 -28 2 -31 31 -3 32
11 62 29 62 5 0 9 -13 9 -30z m4510 -5 c8 -8 19 -14 23 -13 5 0 12 -4 15 -8 8
-8 -106 4 -121 13 -6 4 -3 12 8 20 20 14 50 9 75 -12z m193 8 c8 -7 -11 -33
-24 -33 -5 0 -9 9 -9 20 0 19 20 27 33 13z m-4323 -33 c14 -26 3 -45 -16 -29
-16 13 -19 49 -4 49 5 0 14 -9 20 -20z m4220 -1 c0 -11 -4 -17 -10 -14 -5 3
-10 13 -10 21 0 8 5 14 10 14 6 0 10 -9 10 -21z m-5610 -29 c19 -10 19 -11 -1
-44 -28 -47 -128 -146 -148 -146 -23 0 -17 18 19 52 26 25 40 48 40 64 0 15
12 38 29 55 33 32 35 33 61 19z m185 0 c3 -5 1 -19 -5 -31 -15 -27 -35 -10
-25 20 7 22 20 27 30 11z m-75 -10 c0 -6 -18 -23 -40 -38 -39 -27 -50 -42 -29
-42 5 0 7 -4 4 -10 -7 -11 -48 -14 -43 -2 15 33 75 102 90 102 10 0 18 -5 18
-10z m1794 -6 l69 -6 -7 -52 c-3 -29 -8 -68 -11 -87 -3 -18 -3 -28 1 -21 8 17
24 15 40 -5 21 -28 17 -53 -7 -53 -16 0 -19 -4 -14 -17 19 -44 -10 -103 -49
-103 -17 0 -28 9 -40 34 -9 19 -16 39 -16 45 0 6 -11 35 -25 65 -14 30 -25 61
-25 69 0 8 -7 20 -14 27 -8 6 -20 28 -27 48 -6 20 -15 41 -20 47 -23 24 -22
24 145 9z m2571 -25 c-159 -43 -155 -42 -155 -30 0 17 158 59 225 59 31 0 14
-7 -70 -29z m-195 -6 c0 -5 -11 -21 -25 -38 -19 -23 -24 -26 -25 -12 0 10 7
20 15 23 8 4 15 12 15 20 0 8 5 14 10 14 6 0 10 -3 10 -7z m-4140 -29 c0 -8
-4 -14 -10 -14 -5 0 -10 9 -10 21 0 11 5 17 10 14 6 -3 10 -13 10 -21z m1870
1 c0 -14 5 -34 12 -45 16 -26 0 -40 -18 -16 -16 23 -19 86 -4 86 6 0 10 -11
10 -25z m3140 -1 c58 -7 138 -14 178 -14 l72 0 0 -107 c-1 -314 -29 -652 -86
-1008 -20 -121 -40 -251 -45 -290 -6 -38 -15 -77 -20 -87 -5 -9 -9 -30 -9 -47
0 -16 -4 -33 -10 -36 -5 -3 -10 -19 -10 -34 0 -16 -6 -44 -14 -62 -7 -19 -17
-55 -20 -80 -4 -25 -25 -97 -47 -160 -23 -63 -45 -130 -51 -149 -6 -19 -17
-44 -24 -55 -8 -11 -14 -27 -14 -37 0 -10 -14 -48 -32 -85 -17 -38 -34 -77
-38 -88 -34 -92 -167 -361 -210 -425 -10 -14 -39 -58 -66 -98 -71 -107 -73
-110 -134 -192 -31 -41 -76 -102 -100 -135 -80 -107 -253 -296 -466 -505 -318
-313 -380 -358 -404 -294 -6 14 -10 37 -10 52 0 15 -41 115 -91 222 -50 107
-124 265 -164 350 -40 85 -91 198 -113 250 -22 52 -77 172 -122 265 -45 94
-104 220 -130 280 -26 61 -82 184 -125 275 -42 91 -90 199 -107 240 -17 41
-108 237 -203 435 -95 198 -185 389 -200 425 -16 36 -34 72 -40 80 -6 8 -21
41 -34 73 -21 52 -22 61 -10 90 8 18 14 34 14 37 3 19 28 86 46 122 5 10 9 26
9 36 0 10 4 22 8 27 5 6 20 44 32 85 25 80 63 130 99 130 11 0 25 9 31 20 19
35 55 35 108 1 46 -29 160 -61 221 -61 16 0 34 -7 42 -16 26 -32 70 -46 127
-42 48 4 60 10 89 41 18 20 33 46 33 57 0 12 9 24 24 30 36 13 54 45 72 129
19 87 37 126 62 139 9 5 61 15 114 21 54 6 126 18 160 26 47 11 100 13 222 8
157 -6 318 7 357 27 9 5 62 14 117 19 55 5 109 14 120 20 32 17 236 50 386 62
108 9 154 17 196 35 33 14 65 21 80 18 14 -3 72 -12 130 -20z m360 16 c0 -5
-4 -10 -10 -10 -5 0 -10 5 -10 10 0 6 5 10 10 10 6 0 10 -4 10 -10z m136 -5
c-22 -16 -116 -21 -116 -6 0 14 20 19 80 20 50 0 53 -1 36 -14z m-4456 -39 c0
-16 -18 -31 -27 -22 -8 8 5 36 17 36 5 0 10 -6 10 -14z m870 4 c0 -5 -7 -10
-15 -10 -8 0 -15 5 -15 10 0 6 7 10 15 10 8 0 15 -4 15 -10z m-1794 -48 c-8
-9 -19 -13 -22 -9 -10 9 16 38 28 31 6 -4 4 -13 -6 -22z m2244 -17 c0 -14 -4
-25 -10 -25 -5 0 -10 4 -10 9 0 5 -3 16 -6 25 -4 11 -1 16 10 16 10 0 16 -9
16 -25z m850 -5 c0 -5 -5 -10 -11 -10 -5 0 -7 5 -4 10 3 6 8 10 11 10 2 0 4
-4 4 -10z m-3140 -14 c0 -3 -4 -8 -10 -11 -5 -3 -10 -1 -10 4 0 6 5 11 10 11
6 0 10 -2 10 -4z m70 -6 c0 -14 -49 -44 -58 -35 -4 3 4 15 17 26 26 21 41 24
41 9z m948 -22 c-6 -16 -36 -34 -44 -25 -9 9 15 37 33 37 8 0 13 -5 11 -12z
m1852 2 c0 -5 -4 -10 -10 -10 -5 0 -10 5 -10 10 0 6 5 10 10 10 6 0 10 -4 10
-10z m2464 -29 c19 -21 19 -28 7 -166 -16 -179 -21 -199 -50 -203 -31 -5 -38
-29 -50 -167 -14 -160 -122 -803 -151 -900 -4 -16 -20 -70 -35 -120 -15 -49
-40 -126 -56 -171 -16 -45 -29 -84 -29 -89 0 -17 -86 -228 -140 -345 -32 -69
-77 -165 -100 -215 -74 -161 -240 -435 -329 -545 -21 -25 -48 -61 -61 -80 -58
-83 -344 -392 -534 -576 -178 -172 -286 -293 -286 -320 0 -15 -34 -44 -52 -44
-49 0 -7 51 305 367 546 556 718 772 909 1148 73 143 128 260 128 273 0 8 22
66 49 130 142 340 206 592 307 1217 22 139 44 324 44 384 0 29 4 81 10 115 5
33 13 120 16 191 4 72 9 124 11 118 7 -20 23 -15 23 5 0 38 26 35 64 -7z
m-2374 -8 c0 -10 -4 -24 -9 -32 -7 -11 -10 -9 -16 8 -7 22 0 41 16 41 5 0 9
-8 9 -17z m-352 -43 c12 -25 31 -57 42 -72 24 -33 25 -38 5 -38 -27 0 -57 39
-51 66 9 35 -2 49 -24 29 -22 -20 -29 -10 -23 33 7 43 22 37 51 -18z m-338
-30 c0 -5 -4 -10 -10 -10 -5 0 -10 5 -10 10 0 6 5 10 10 10 6 0 10 -4 10 -10z
m670 -35 c0 -41 -24 -105 -39 -105 -14 0 -14 27 -1 35 6 3 10 21 10 40 0 18 3
40 6 49 11 28 24 17 24 -19z m-575 -49 c13 -24 16 -43 11 -69 -7 -40 -21 -45
-52 -23 -18 14 -18 15 14 26 29 11 45 30 24 30 -13 0 -53 60 -47 70 10 15 32
1 50 -34z m510 -125 c-3 -6 -11 -11 -17 -11 -6 0 -6 6 2 15 14 17 26 13 15 -4z
m-50 -77 c-14 -21 -32 -42 -38 -46 -20 -13 -47 -9 -47 7 0 8 4 15 9 15 4 0 28
16 52 34 24 19 45 33 47 32 1 -2 -9 -21 -23 -42z m562 -3702 c-13 -28 -27 -49
-30 -46 -6 6 14 70 34 106 25 44 21 -6 -4 -60z"/>
<path d="M3566 9392 c-2 -4 -1 -14 5 -22 7 -12 9 -10 9 8 0 23 -5 28 -14 14z"/>
<path d="M3610 9354 c0 -8 5 -12 10 -9 6 4 8 11 5 16 -9 14 -15 11 -15 -7z"/>
<path d="M3506 9315 c-4 -11 -12 -30 -17 -43 -12 -30 -12 -62 1 -62 6 0 10 9
10 21 0 11 5 29 11 40 5 11 9 30 6 42 -3 21 -4 21 -11 2z"/>
<path d="M3544 9309 c-3 -6 -1 -16 5 -22 8 -8 11 -5 11 11 0 24 -5 28 -16 11z"/>
<path d="M3591 9255 c0 -35 2 -37 11 -19 7 15 7 28 -1 40 -9 16 -10 12 -10
-21z"/>
<path d="M3520 9210 c0 -11 5 -20 10 -20 6 0 10 9 10 20 0 11 -4 20 -10 20 -5
0 -10 -9 -10 -20z"/>
<path d="M3507 9123 c-11 -10 -8 -61 3 -68 6 -4 10 10 10 34 0 42 -2 46 -13
34z"/>
<path d="M3545 9001 c-3 -5 -1 -12 5 -16 5 -3 10 1 10 9 0 18 -6 21 -15 7z"/>
<path d="M3780 9603 c0 -5 11 -20 25 -33 14 -13 25 -19 25 -13 0 5 -11 20 -25
33 -14 13 -25 19 -25 13z"/>
<path d="M4090 9540 c0 -5 9 -10 20 -10 11 0 20 5 20 10 0 6 -9 10 -20 10 -11
0 -20 -4 -20 -10z"/>
<path d="M4270 9384 c0 -13 78 -89 85 -83 2 3 -16 25 -40 49 -25 24 -45 40
-45 34z"/>
<path d="M4420 9109 c0 -11 5 -17 10 -14 6 3 10 13 10 21 0 8 -4 14 -10 14 -5
0 -10 -9 -10 -21z"/>
<path d="M4250 9065 c0 -8 5 -15 10 -15 6 0 10 7 10 15 0 8 -4 15 -10 15 -5 0
-10 -7 -10 -15z"/>
<path d="M1525 8730 c-3 -5 1 -10 10 -10 9 0 13 5 10 10 -3 6 -8 10 -10 10 -2
0 -7 -4 -10 -10z"/>
<path d="M1516 8671 c-37 -15 -126 -155 -133 -213 -8 -56 9 -43 27 21 7 28 17
51 22 51 4 0 8 6 8 14 0 8 27 38 59 67 66 58 73 82 17 60z"/>
<path d="M2370 8425 c-11 -13 -8 -13 19 -4 35 12 40 19 12 19 -10 0 -24 -7
-31 -15z"/>
<path d="M1480 8395 c0 -14 5 -25 10 -25 6 0 10 11 10 25 0 14 -4 25 -10 25
-5 0 -10 -11 -10 -25z"/>
<path d="M2210 8180 c0 -5 5 -10 10 -10 6 0 10 5 10 10 0 6 -4 10 -10 10 -5 0
-10 -4 -10 -10z"/>
<path d="M2795 8638 c-4 -10 -4 -26 0 -35 8 -17 8 -17 12 0 3 9 3 25 0 35 -4
16 -4 16 -12 0z"/>
<path d="M2750 8621 c0 -11 5 -23 10 -26 6 -4 10 5 10 19 0 14 -4 26 -10 26
-5 0 -10 -9 -10 -19z"/>
<path d="M3360 8600 c0 -5 15 -10 34 -10 19 0 38 -4 41 -10 3 -5 13 -10 21
-10 8 0 14 5 14 10 0 6 -7 10 -15 10 -8 0 -15 5 -15 10 0 6 -18 10 -40 10 -22
0 -40 -4 -40 -10z"/>
<path d="M3520 8560 c0 -5 11 -10 25 -10 14 0 25 5 25 10 0 6 -11 10 -25 10
-14 0 -25 -4 -25 -10z"/>
<path d="M3610 8534 c0 -8 5 -12 10 -9 6 4 8 11 5 16 -9 14 -15 11 -15 -7z"/>
<path d="M3150 8315 c0 -15 4 -24 10 -20 6 3 10 12 10 20 0 8 -4 17 -10 20 -6
4 -10 -5 -10 -20z"/>
<path d="M3170 8230 c0 -16 5 -30 10 -30 6 0 10 14 10 30 0 17 -4 30 -10 30
-5 0 -10 -13 -10 -30z"/>
<path d="M5061 8329 c-14 -53 -11 -65 14 -56 10 5 15 20 15 51 0 62 -14 65
-29 5z"/>
<path d="M5158 8374 c-4 -3 -1 -15 5 -26 10 -16 8 -22 -12 -39 -21 -17 -22
-22 -10 -30 32 -20 49 -11 49 29 0 38 -20 79 -32 66z"/>
<path d="M4850 8311 c0 -6 5 -13 10 -16 15 -10 12 -35 -5 -35 -23 0 -18 -16
10 -28 29 -13 31 -24 9 -47 -9 -8 -13 -22 -10 -31 9 -23 41 -13 41 13 0 12 3
24 6 27 7 7 -19 95 -34 114 -11 14 -27 16 -27 3z"/>
<path d="M4940 8299 c-12 -9 -13 -11 -1 -16 7 -3 22 -14 32 -24 24 -24 29 -24
29 -1 0 11 -8 26 -18 35 -22 20 -22 20 -42 6z"/>
<path d="M5256 8262 c6 -4 14 -16 18 -27 6 -13 10 -16 13 -7 8 20 -5 42 -24
42 -11 0 -14 -3 -7 -8z"/>
<path d="M5320 8250 c0 -5 9 -10 21 -10 11 0 17 5 14 10 -3 6 -13 10 -21 10
-8 0 -14 -4 -14 -10z"/>
<path d="M4761 8236 c-10 -12 -8 -16 9 -21 17 -5 20 -12 15 -34 -5 -23 -1 -29
20 -39 29 -13 29 -14 11 53 -14 52 -34 67 -55 41z"/>
<path d="M5143 8213 c-22 -8 -14 -23 12 -23 14 0 25 4 25 9 0 11 -21 19 -37
14z"/>
<path d="M4948 8178 c9 -9 15 -9 24 0 9 9 7 12 -12 12 -19 0 -21 -3 -12 -12z"/>
<path d="M5071 8150 c1 -42 1 -43 10 -18 7 18 7 33 0 45 -8 14 -10 9 -10 -27z"/>
<path d="M5330 8140 c0 -5 4 -10 9 -10 6 0 13 5 16 10 3 6 -1 10 -9 10 -9 0
-16 -4 -16 -10z"/>
<path d="M4718 8113 c11 -20 10 -132 -1 -149 -3 -6 2 -19 13 -29 15 -14 19
-26 14 -54 -4 -25 0 -42 11 -56 14 -19 15 -15 11 50 -10 135 -21 230 -29 243
-13 19 -29 15 -19 -5z"/>
<path d="M4953 8113 c-9 -3 -6 -13 9 -33 16 -22 19 -36 14 -63 -7 -36 0 -67
15 -67 12 0 11 112 -1 144 -10 26 -15 29 -37 19z"/>
<path d="M4800 8105 c0 -15 42 -85 50 -85 6 0 10 13 10 30 0 23 -7 33 -30 45
-16 9 -30 13 -30 10z"/>
<path d="M5150 8101 c0 -12 29 -35 36 -28 11 10 -5 37 -21 37 -8 0 -15 -4 -15
-9z"/>
<path d="M5230 8086 c0 -17 11 -30 36 -45 44 -26 44 -26 44 5 0 22 -2 24 -15
14 -12 -10 -18 -7 -32 19 -22 37 -33 40 -33 7z"/>
<path d="M5090 8074 c0 -8 5 -12 10 -9 6 4 8 11 5 16 -9 14 -15 11 -15 -7z"/>
<path d="M4884 8060 c3 -8 9 -23 12 -32 4 -10 10 -18 15 -18 17 0 9 27 -12 46
-15 13 -20 14 -15 4z"/>
<path d="M4800 8027 c0 -17 67 -103 77 -100 6 2 14 -1 18 -6 8 -13 25 -14 25
-2 0 24 -55 91 -75 91 -11 0 -26 5 -33 12 -7 7 -12 9 -12 5z"/>
<path d="M5236 8021 c-5 -7 -10 -44 -12 -82 -3 -59 -1 -70 16 -79 25 -13 32 1
19 37 -6 19 -6 39 0 54 11 30 -10 92 -23 70z"/>
<path d="M5163 8003 c9 -9 19 -14 23 -11 10 10 -6 28 -24 28 -15 0 -15 -1 1
-17z"/>
<path d="M5042 7983 c-18 -7 -4 -23 19 -23 12 0 19 5 17 12 -5 14 -18 18 -36
11z"/>
<path d="M5132 7954 c2 -11 11 -20 22 -22 13 -3 17 1 14 14 -2 11 -11 20 -22
22 -13 3 -17 -1 -14 -14z"/>
<path d="M5055 7914 c-12 -18 -13 -29 -6 -38 6 -7 14 -41 17 -75 5 -39 10 -57
15 -49 12 18 11 188 0 188 -5 0 -16 -12 -26 -26z"/>
<path d="M4968 7908 c15 -15 16 -54 2 -63 -17 -10 -11 -25 10 -25 16 0 20 7
20 38 0 37 -14 62 -34 62 -6 0 -5 -5 2 -12z"/>
<path d="M5170 7885 c0 -8 5 -15 10 -15 6 0 10 7 10 15 0 8 -4 15 -10 15 -5 0
-10 -7 -10 -15z"/>
<path d="M5135 7843 c4 -10 10 -28 12 -40 3 -13 9 -23 14 -23 12 0 11 37 -1
61 -13 24 -35 26 -25 2z"/>
<path d="M5023 7814 c-3 -8 -1 -20 6 -27 8 -8 11 -4 11 16 0 30 -7 35 -17 11z"/>
<path d="M5024 7736 c-8 -20 7 -52 22 -49 15 3 15 27 0 48 -14 19 -15 19 -22
1z"/>
<path d="M5090 7660 c0 -5 4 -10 9 -10 6 0 13 5 16 10 3 6 -1 10 -9 10 -9 0
-16 -4 -16 -10z"/>
<path d="M5130 7600 c0 -5 5 -10 10 -10 6 0 10 5 10 10 0 6 -4 10 -10 10 -5 0
-10 -4 -10 -10z"/>
<path d="M5040 7450 c0 -11 7 -20 15 -20 8 0 15 9 15 20 0 11 -7 20 -15 20 -8
0 -15 -9 -15 -20z"/>
<path d="M7800 8250 c0 -5 5 -10 11 -10 5 0 7 5 4 10 -3 6 -8 10 -11 10 -2 0
-4 -4 -4 -10z"/>
<path d="M7380 8144 c0 -8 5 -12 10 -9 6 3 10 10 10 16 0 5 -4 9 -10 9 -5 0
-10 -7 -10 -16z"/>
<path d="M7320 8084 c0 -8 5 -12 10 -9 6 4 8 11 5 16 -9 14 -15 11 -15 -7z"/>
<path d="M5967 8243 c-11 -10 -8 -71 3 -78 6 -4 10 12 10 39 0 47 -2 51 -13
39z"/>
<path d="M5796 8102 c-2 -4 -1 -14 5 -22 7 -12 9 -10 9 8 0 23 -5 28 -14 14z"/>
<path d="M5900 8006 c0 -9 5 -16 10 -16 6 0 10 4 10 9 0 6 -4 13 -10 16 -5 3
-10 -1 -10 -9z"/>
<path d="M6027 7995 c-4 -8 -2 -17 3 -20 6 -4 10 3 10 14 0 25 -6 27 -13 6z"/>
<path d="M5670 7930 c0 -11 5 -20 10 -20 6 0 10 9 10 20 0 11 -4 20 -10 20 -5
0 -10 -9 -10 -20z"/>
<path d="M5710 7905 c0 -8 5 -15 10 -15 6 0 10 7 10 15 0 8 -4 15 -10 15 -5 0
-10 -7 -10 -15z"/>
<path d="M5650 7859 c0 -11 5 -17 10 -14 6 3 10 13 10 21 0 8 -4 14 -10 14 -5
0 -10 -9 -10 -21z"/>
<path d="M4405 7961 c-8 -15 3 -31 21 -31 9 0 14 7 12 17 -4 20 -24 28 -33 14z"/>
<path d="M4424 7785 c-9 -21 3 -45 21 -45 21 0 30 27 15 45 -16 19 -29 19 -36
0z"/>
<path d="M4306 7651 c-19 -21 -14 -41 9 -41 16 0 46 40 39 52 -9 14 -30 9 -48
-11z"/>
<path d="M4420 7571 c0 -36 13 -46 40 -31 24 13 26 30 5 30 -9 0 -18 7 -21 15
-10 25 -24 17 -24 -14z"/>
<path d="M4326 7499 c-35 -42 -35 -96 0 -82 8 3 14 19 14 38 0 27 5 34 25 39
14 4 25 13 25 21 0 26 -37 16 -64 -16z"/>
<path d="M4380 7381 c-23 -44 -2 -75 31 -45 18 16 18 19 4 27 -13 7 -14 12 -4
23 9 11 8 14 -4 14 -9 0 -21 -9 -27 -19z"/>
<path d="M4255 7250 c-4 -6 7 -10 24 -10 17 0 31 5 31 10 0 6 -11 10 -24 10
-14 0 -28 -4 -31 -10z"/>
<path d="M4375 7230 c-4 -6 6 -10 22 -10 22 0 25 2 13 10 -19 12 -27 12 -35 0z"/>
<path d="M4323 7184 c0 -21 37 -74 52 -74 3 0 5 11 5 25 0 18 8 29 28 37 27
11 27 11 -23 24 -65 18 -62 18 -62 -12z"/>
<path d="M6726 8159 c-43 -5 -81 -11 -85 -15 -10 -11 382 5 393 16 12 12 -191
11 -308 -1z"/>
<path d="M3250 7970 c0 -5 5 -10 10 -10 6 0 10 5 10 10 0 6 -4 10 -10 10 -5 0
-10 -4 -10 -10z"/>
<path d="M3568 7856 c-9 -20 -7 -31 11 -61 24 -42 26 -55 8 -55 -8 0 -19 11
-25 25 -13 27 -46 34 -55 11 -4 -9 2 -16 15 -19 16 -5 19 -12 16 -31 -4 -22
-3 -23 19 -15 14 5 33 5 50 -2 39 -15 51 2 30 46 -9 19 -14 41 -11 49 10 25
-6 39 -22 19 -13 -17 -13 -17 -14 5 0 12 7 25 15 28 22 9 18 24 -5 24 -12 0
-25 -10 -32 -24z"/>
<path d="M3850 7787 c0 -23 11 -47 22 -47 14 0 5 53 -9 58 -7 2 -13 -3 -13
-11z"/>
<path d="M3880 7712 c0 -14 11 -21 26 -15 8 3 11 9 8 14 -7 11 -34 12 -34 1z"/>
<path d="M3557 7663 c-12 -11 -8 -21 12 -26 11 -2 21 -15 23 -28 4 -19 6 -21
12 -8 15 34 -24 86 -47 62z"/>
<path d="M3676 7628 c-23 -38 -29 -78 -11 -78 9 0 18 7 20 15 14 43 17 50 22
37 3 -6 9 -10 13 -7 10 6 -9 55 -21 55 -5 0 -15 -10 -23 -22z"/>
<path d="M3724 7534 c-8 -20 -14 -37 -12 -38 2 0 14 -7 26 -14 29 -16 37 -10
22 17 -7 15 -8 27 0 40 14 26 13 31 -6 31 -8 0 -22 -16 -30 -36z"/>
<path d="M4020 7868 c0 -7 -10 -19 -21 -26 -16 -10 -18 -17 -10 -25 6 -6 11
-18 11 -27 0 -24 46 -64 64 -57 25 10 19 27 -9 27 -30 0 -43 24 -25 45 10 12
16 13 27 4 23 -20 27 -2 7 32 -21 35 -44 49 -44 27z"/>
<path d="M4091 7850 c0 -33 1 -34 11 -12 8 17 8 26 0 34 -9 9 -12 4 -11 -22z"/>
<path d="M4090 7624 c0 -8 5 -12 10 -9 6 4 8 11 5 16 -9 14 -15 11 -15 -7z"/>
<path d="M3125 8991 c-8 -27 3 -83 16 -75 11 7 12 65 0 83 -7 11 -10 9 -16 -8z"/>
<path d="M2265 8961 c-19 -8 -19 -8 3 -15 28 -9 61 -76 69 -139 6 -46 7 -47
24 -31 20 18 26 40 9 29 -21 -13 -9 23 13 38 l22 16 -22 7 c-26 7 -30 26 -9
43 10 9 15 8 20 -4 7 -19 26 -20 26 0 0 8 3 15 6 15 14 0 90 -23 113 -33 19
-10 25 -8 37 8 22 30 -6 39 -128 40 -93 0 -107 2 -112 18 -4 18 -36 22 -71 8z"/>
<path d="M2473 8874 c-6 -16 12 -34 35 -34 15 0 15 6 2 31 -13 23 -28 25 -37
3z"/>
<path d="M2565 8811 c-4 -28 -3 -70 1 -93 8 -43 8 -43 15 -13 10 44 10 128 0
144 -6 9 -11 -3 -16 -38z"/>
<path d="M2620 8843 c0 -10 4 -25 10 -33 8 -12 10 -12 16 3 7 20 -1 47 -16 47
-5 0 -10 -8 -10 -17z"/>
<path d="M2420 8772 c0 -46 4 -71 10 -67 13 8 13 105 0 125 -7 10 -10 -7 -10
-58z"/>
<path d="M2497 8703 c-3 -60 -8 -123 -12 -140 -10 -43 9 -44 24 -2 13 39 15
249 2 249 -6 0 -12 -48 -14 -107z"/>
<path d="M2650 8741 c0 -12 -5 -32 -11 -43 -9 -16 -8 -19 3 -16 20 7 34 56 20
70 -9 9 -12 7 -12 -11z"/>
<path d="M2310 8726 c14 -16 20 -31 16 -42 -3 -9 -1 -34 4 -55 16 -59 33 -38
28 34 -5 61 -22 87 -57 87 -11 0 -8 -7 9 -24z"/>
<path d="M2564 8636 c-3 -8 -1 -23 5 -33 9 -15 10 -13 11 15 0 34 -7 42 -16
18z"/>
<path d="M2610 8648 c0 -2 7 -21 14 -43 11 -30 16 -36 21 -23 11 27 1 63 -17
66 -10 2 -18 2 -18 0z"/>
<path d="M2210 8601 c0 -17 5 -33 10 -36 6 -4 10 8 10 29 0 20 -4 36 -10 36
-5 0 -10 -13 -10 -29z"/>
<path d="M2400 8600 c0 -18 4 -29 10 -25 6 3 10 15 10 25 0 10 -4 22 -10 25
-6 4 -10 -7 -10 -25z"/>
<path d="M2543 8554 c-3 -8 -1 -20 6 -27 8 -8 11 -4 11 16 0 30 -7 35 -17 11z"/>
<path d="M2811 7911 l-25 -7 28 -22 c33 -25 46 -21 46 14 0 25 -7 27 -49 15z"/>
<path d="M3087 7733 c-3 -5 -2 -15 2 -22 5 -7 11 -9 14 -4 3 5 2 15 -2 22 -5
7 -11 9 -14 4z"/>
<path d="M2802 7708 c-20 -20 -14 -28 20 -25 40 3 54 37 16 37 -13 0 -29 -5
-36 -12z"/>
<path d="M2580 7620 c0 -5 5 -10 10 -10 6 0 10 5 10 10 0 6 -4 10 -10 10 -5 0
-10 -4 -10 -10z"/>
<path d="M2640 7600 c0 -5 9 -10 19 -10 11 0 23 5 26 10 4 6 -5 10 -19 10 -14
0 -26 -4 -26 -10z"/>
<path d="M2535 7526 c-18 -13 -18 -14 3 -25 34 -18 52 -14 52 14 0 29 -24 34
-55 11z"/>
<path d="M3053 7515 c2 -20 37 -35 37 -16 0 6 -6 11 -14 11 -8 0 -17 6 -20 13
-3 6 -5 3 -3 -8z"/>
<path d="M2795 7480 c3 -5 13 -10 21 -10 8 0 14 5 14 10 0 6 -9 10 -21 10 -11
0 -17 -4 -14 -10z"/>
<path d="M1454 7455 c-10 -24 38 -99 75 -117 39 -20 91 -64 91 -78 0 -6 10
-15 23 -20 12 -6 42 -26 67 -44 25 -19 52 -35 61 -35 9 -1 19 -8 23 -16 3 -8
12 -15 20 -15 15 0 29 -27 20 -41 -10 -17 -61 -9 -92 14 -88 65 -119 91 -136
119 -12 19 -43 41 -80 59 -73 35 -96 37 -96 9 0 -24 80 -105 113 -116 12 -4
40 -25 63 -48 23 -23 67 -61 98 -86 32 -25 80 -65 108 -88 37 -32 53 -40 59
-31 4 7 3 21 -2 30 -5 10 -9 30 -9 45 0 23 2 25 16 13 9 -7 13 -21 10 -35 -5
-18 8 -33 70 -85 164 -139 293 -253 289 -257 -7 -7 -52 25 -158 112 -54 45
-112 92 -129 106 -21 17 -44 25 -73 25 -32 1 -52 9 -86 37 -24 19 -53 38 -63
42 -10 3 -16 9 -13 13 12 12 -14 43 -66 77 -28 20 -101 81 -162 135 l-110 100
-3 -39 c-2 -22 2 -49 8 -61 13 -23 -1 -51 -14 -30 -4 6 -18 11 -32 11 -33 0
-31 -28 6 -89 29 -47 87 -101 109 -101 5 0 12 -9 16 -19 3 -11 34 -40 68 -64
77 -56 163 -140 148 -145 -14 -5 -51 19 -111 70 -163 140 -235 196 -242 192
-18 -12 -5 -40 37 -81 25 -24 40 -43 33 -43 -7 0 -36 25 -64 55 -29 30 -59 55
-68 55 -8 0 -18 5 -22 11 -9 16 -95 69 -111 69 -18 0 -16 -40 4 -62 13 -15 14
-18 2 -18 -8 0 -20 5 -27 12 -7 7 -12 8 -12 2 0 -14 47 -57 100 -91 25 -16 72
-56 106 -88 62 -62 187 -167 204 -173 15 -5 12 -22 -3 -22 -17 0 -113 71 -197
145 -36 31 -81 67 -100 80 -19 12 -41 30 -49 39 -10 11 -30 16 -70 16 -91 0
-95 -10 -29 -75 32 -30 67 -55 78 -55 11 0 20 -4 20 -9 0 -5 12 -13 28 -19 39
-14 122 -84 122 -103 0 -18 24 -42 32 -33 4 3 19 -1 35 -9 15 -8 51 -18 78
-22 64 -9 74 -15 170 -94 44 -37 111 -91 150 -120 107 -80 264 -215 265 -226
0 -6 -38 -49 -85 -95 -102 -101 -187 -233 -240 -369 -37 -95 -44 -147 -31
-212 7 -30 1 -54 -34 -140 -141 -348 -243 -781 -310 -1319 -21 -165 -58 -337
-84 -388 -29 -58 -46 -158 -46 -278 l0 -120 -48 -64 c-27 -36 -54 -80 -62 -98
-18 -47 -7 -178 24 -282 15 -47 31 -128 37 -180 15 -142 27 -194 55 -231 22
-30 24 -42 22 -114 -1 -61 3 -88 17 -115 30 -58 34 -95 18 -173 -22 -103 -13
-175 32 -272 38 -80 38 -80 36 -200 l-3 -119 -39 -49 c-21 -27 -39 -56 -39
-64 0 -44 -107 -173 -144 -173 -7 0 -32 -21 -54 -47 -23 -27 -58 -68 -79 -91
-48 -55 -110 -102 -136 -102 -16 0 -17 3 -7 15 10 12 8 16 -15 25 -14 5 -41
10 -59 10 -41 0 -51 9 -28 26 15 12 12 13 -23 14 -22 0 -53 7 -68 15 -21 11
-39 12 -67 6 -41 -9 -50 -6 -50 16 0 8 11 13 28 13 39 0 60 16 44 32 -9 9 -24
9 -69 -3 -58 -15 -58 -16 -55 -50 2 -19 9 -37 15 -41 7 -4 50 -8 97 -9 l85 -1
-50 -12 c-63 -15 -70 -42 -10 -38 22 1 50 5 63 7 27 7 30 -11 2 -18 -11 -3
-20 -13 -20 -22 0 -20 31 -75 42 -75 4 0 20 -19 34 -42 24 -38 26 -46 16 -86
-8 -36 -6 -54 8 -96 10 -28 28 -57 39 -64 35 -24 129 -25 247 -4 155 28 241
67 331 153 93 87 114 101 177 110 203 31 235 46 265 124 51 137 51 245 -1 358
l-32 69 17 63 c20 75 21 100 6 174 -11 52 -10 62 16 131 36 100 41 133 21 162
-21 30 -20 63 4 117 11 24 20 51 20 61 0 10 12 32 26 49 25 31 25 31 10 85
-16 53 -16 56 7 98 13 24 44 72 70 107 30 42 48 78 53 107 12 80 -14 171 -74
253 -29 39 -30 47 -30 134 l1 92 38 33 c22 19 39 42 39 52 0 10 4 22 10 25 5
3 10 16 10 28 0 22 -1 22 -20 -3 l-20 -25 0 35 c0 20 -5 41 -12 48 -9 9 -9 12
0 12 7 0 12 -4 12 -10 0 -5 7 -10 15 -10 8 0 15 3 15 6 0 16 -35 62 -61 80
-39 26 -44 46 -20 91 41 80 171 387 171 406 0 30 52 118 108 181 33 38 66 81
73 95 7 14 24 39 38 54 14 15 62 81 107 145 52 75 100 132 135 160 125 100
176 148 216 203 47 64 73 85 124 99 42 13 128 -3 162 -30 13 -10 51 -65 84
-122 62 -105 220 -442 230 -489 5 -29 -13 -102 -92 -354 -29 -93 -67 -224 -84
-290 -18 -66 -45 -163 -61 -215 -35 -114 -54 -178 -70 -245 -7 -27 -17 -54
-21 -60 -5 -5 -9 -19 -9 -32 0 -12 -4 -32 -9 -45 -13 -34 -68 -216 -80 -265
-25 -99 -33 -129 -42 -145 -5 -10 -9 -27 -9 -37 0 -11 -4 -22 -9 -25 -4 -3
-11 -24 -15 -46 -3 -22 -12 -54 -20 -72 -8 -18 -21 -60 -29 -93 -9 -33 -20
-79 -26 -101 -6 -23 -11 -50 -11 -62 0 -11 -7 -33 -15 -48 -8 -16 -18 -50 -21
-77 -4 -26 -11 -50 -15 -53 -5 -3 -9 -15 -9 -28 0 -12 -13 -65 -30 -116 -16
-52 -30 -107 -30 -122 0 -29 31 -58 63 -58 27 0 94 70 103 106 3 16 17 54 29
84 21 49 114 333 258 785 28 88 56 174 63 190 7 17 15 44 19 60 4 17 13 44 20
60 25 56 95 245 95 256 0 6 38 115 84 242 46 128 89 249 96 270 6 20 17 37 24
37 14 0 119 -106 135 -137 6 -12 11 -33 11 -48 0 -14 8 -38 19 -53 49 -72 81
-127 81 -141 0 -9 3 -27 7 -40 4 -17 3 -22 -5 -17 -26 16 -11 -43 23 -90 53
-74 48 -106 -32 -196 -19 -22 -30 -44 -27 -53 6 -16 181 -75 221 -75 13 0 23
-4 23 -10 0 -14 -45 -12 -119 5 -79 19 -90 12 -69 -47 9 -24 16 -59 16 -79 0
-36 28 -100 65 -151 20 -28 20 -29 4 -141 -9 -62 -17 -128 -17 -148 0 -20 -5
-50 -11 -68 -16 -47 5 -118 60 -204 157 -240 160 -247 167 -365 3 -54 13 -118
21 -143 13 -38 14 -55 5 -92 -17 -64 -15 -99 7 -149 28 -65 35 -185 20 -358
l-12 -152 -46 5 c-114 12 -184 40 -194 78 -5 18 -30 24 -152 35 -80 7 -122 23
-62 24 54 0 45 18 -13 26 -32 4 -50 11 -50 20 0 10 -14 14 -48 14 -52 0 -94
-22 -86 -45 8 -19 79 -38 110 -31 17 5 23 2 22 -6 -2 -9 13 -14 45 -16 26 -2
47 -7 47 -13 0 -5 -4 -9 -10 -9 -5 0 -10 -4 -10 -10 0 -5 16 -10 35 -10 19 0
35 -4 35 -9 0 -5 17 -12 37 -16 42 -8 123 -47 168 -80 17 -13 64 -40 105 -60
41 -20 89 -48 107 -61 17 -13 38 -24 45 -24 22 0 101 -30 136 -52 32 -20 127
-129 166 -190 16 -26 24 -29 52 -25 22 4 34 1 38 -8 3 -8 29 -26 57 -41 46
-23 60 -25 111 -20 191 22 279 109 277 275 -1 87 -14 154 -34 166 -197 117
-248 164 -272 245 -20 71 -69 192 -101 253 -23 45 -24 54 -18 150 5 79 4 112
-8 145 -11 30 -13 50 -6 68 6 15 8 85 4 167 -5 118 -2 157 14 232 15 72 18
116 14 221 -3 102 -1 146 13 205 9 40 21 115 25 164 5 50 11 102 15 117 5 19
1 35 -13 55 -19 28 -71 190 -79 249 -3 18 0 35 6 38 22 14 11 58 -20 87 -31
29 -31 30 -33 141 -2 78 -8 125 -19 151 -10 23 -21 93 -27 170 -9 117 -25 230
-46 337 l-7 35 36 -30 c20 -16 39 -40 43 -52 3 -13 19 -26 38 -33 70 -23 136
35 136 119 0 22 4 41 9 41 5 0 11 -53 13 -117 2 -84 7 -118 16 -121 7 -2 22
-13 32 -24 19 -21 19 -21 26 8 5 16 8 220 8 454 1 530 22 466 -245 750 -70 74
-148 163 -174 198 -26 34 -50 62 -55 62 -10 0 -151 164 -168 196 -7 13 -17 61
-22 106 -13 114 -31 189 -44 185 -18 -6 -19 -46 -2 -53 21 -8 20 -27 -1 -47
-35 -30 -362 -149 -454 -163 -21 -4 -42 -11 -45 -15 -6 -10 -127 -12 -161 -3
-14 4 -24 17 -28 38 -4 17 -13 52 -21 78 -8 26 -24 100 -35 165 -11 65 -22
130 -25 144 -9 40 16 54 69 40 49 -14 301 -60 370 -67 38 -5 47 -3 47 10 0 9
-6 13 -14 10 -19 -7 -30 30 -16 56 14 27 21 25 47 -15 19 -30 20 -35 6 -55 -8
-12 -13 -23 -10 -26 2 -3 65 -21 138 -41 101 -27 150 -36 198 -34 54 2 73 -2
125 -28 33 -16 79 -48 101 -71 36 -37 41 -47 45 -102 3 -37 10 -63 18 -66 16
-5 62 93 62 134 0 30 -42 105 -77 136 -20 18 -211 128 -222 128 -4 0 -22 13
-41 29 -33 27 -34 31 -23 57 6 16 28 70 48 119 111 278 175 423 216 495 16 28
19 49 17 107 -3 64 -7 76 -33 103 -16 16 -38 30 -50 30 -21 0 -80 -55 -129
-122 -25 -34 -26 -38 -12 -60 14 -22 13 -29 -21 -108 -56 -133 -119 -307 -144
-397 -12 -46 -27 -83 -32 -83 -18 0 -91 86 -137 160 -29 47 -63 86 -97 111
-28 21 -54 43 -57 48 -6 8 36 43 180 151 68 51 171 172 264 310 91 136 102
157 77 147 -10 -4 -20 0 -26 10 -8 14 -13 15 -35 5 -15 -7 -26 -20 -26 -32 0
-11 -9 -25 -20 -32 -11 -7 -20 -16 -20 -20 0 -12 35 -9 48 4 6 6 15 9 18 5 11
-11 -17 -37 -38 -37 -11 0 -32 -9 -48 -20 -35 -25 -45 -15 -20 20 24 33 25 40
6 40 -20 0 -86 -64 -86 -84 0 -10 8 -16 23 -16 13 0 27 -3 30 -7 9 -9 -31 -36
-42 -28 -10 5 -67 -6 -106 -20 -16 -7 -18 -6 -7 6 25 27 15 42 -24 36 -20 -3
-39 -9 -42 -12 -6 -5 56 -65 68 -65 3 0 11 5 18 12 6 6 15 9 18 5 7 -6 -55
-95 -81 -117 -13 -10 -19 -10 -35 5 -25 22 -19 31 24 39 41 8 71 36 38 36 -12
0 -24 -4 -27 -10 -3 -5 -26 -10 -51 -10 -45 0 -58 -12 -26 -25 16 -6 16 -7 -1
-19 -9 -7 -17 -20 -17 -29 0 -9 -4 -19 -10 -22 -16 -10 -11 -22 11 -28 13 -3
18 -10 14 -17 -4 -7 -17 -9 -28 -6 -14 3 -28 -3 -42 -18 -15 -16 -38 -25 -81
-30 -78 -9 -76 -9 -96 -1 -21 9 -46 -31 -29 -48 8 -8 11 -5 11 11 0 29 16 28
24 0 4 -18 8 -20 18 -10 14 14 68 17 68 3 0 -17 -203 -29 -257 -15 -28 8 -30
20 -3 27 15 4 20 14 20 41 0 31 -3 36 -24 36 -24 0 -56 -23 -56 -41 0 -5 -27
-9 -60 -9 -33 0 -60 4 -60 10 0 6 25 10 55 10 53 0 72 11 39 24 -9 3 -40 9
-70 12 -42 5 -58 3 -72 -9 -22 -20 -72 -39 -72 -28 0 5 7 11 15 15 8 3 15 10
15 15 0 10 -118 51 -148 51 -26 0 -82 20 -82 29 0 4 28 2 63 -5 163 -34 598
-59 582 -35 -3 6 -21 11 -38 11 -75 0 -103 24 -42 36 43 8 46 24 5 24 -17 0
-43 6 -58 14 -15 8 -58 17 -97 21 -38 3 -83 10 -100 15 -16 5 -51 11 -76 15
-26 3 -55 13 -65 21 -18 15 -18 15 1 9 19 -6 93 -16 260 -35 44 -5 100 -12
123 -16 27 -4 48 -2 55 5 8 8 -3 11 -40 11 -79 0 -80 23 -3 45 l35 11 -38 23
c-25 15 -65 27 -115 33 -72 8 -221 32 -284 44 -16 3 -28 12 -28 21 0 11 5 13
18 7 28 -13 162 -17 162 -5 0 6 -1 11 -2 11 -11 0 -330 42 -355 46 -64 12 -33
25 45 19 208 -15 330 -27 363 -36 48 -12 139 -12 139 1 0 6 -12 10 -27 10 -16
0 -45 3 -65 6 -35 6 -38 9 -38 40 0 31 -3 34 -29 34 -23 0 -30 -5 -33 -22 -3
-26 4 -25 -183 -13 -60 4 -127 13 -148 21 -20 8 -59 14 -85 15 -46 0 -46 1
-24 16 26 19 28 38 5 52 -17 9 -17 10 0 16 36 14 17 33 -45 44 -84 15 -153 64
-119 85 5 3 16 -5 25 -19 20 -30 79 -47 154 -43 l56 3 2 38 c1 36 -1 38 -25
32 -14 -3 -33 -15 -43 -25 -21 -26 -54 -25 -98 1 l-34 21 29 13 c27 11 28 13
10 20 -11 3 -30 10 -41 15 -15 6 -26 3 -39 -8 -16 -16 -17 -12 -14 68 1 47 -2
100 -6 117 -6 27 -11 32 -29 27 -26 -6 -51 18 -42 41 4 13 10 14 26 5 21 -11
40 -6 40 11 0 5 -9 9 -19 9 -25 0 -61 46 -61 77 0 13 5 33 11 44 7 15 7 24 -2
35 -21 26 -29 15 -29 -40 0 -93 -11 -145 -31 -151 -25 -8 -24 -25 0 -25 22 0
36 -29 21 -44 -7 -7 -10 -4 -10 8 0 13 -5 16 -19 11 -24 -7 -41 19 -42 67 0
18 -4 42 -8 53 -16 38 -24 -115 -16 -290 4 -93 8 -206 9 -250 1 -46 6 -83 12
-87 6 -4 17 -48 25 -99 l13 -91 43 -20 c28 -13 43 -27 43 -39 0 -26 -12 -24
-40 6 -13 14 -32 25 -43 25 -18 0 -46 25 -47 42 0 3 8 9 18 11 14 4 14 6 -5
12 -15 5 -23 15 -23 29 0 13 -13 31 -30 44 -31 24 -39 42 -17 42 7 0 18 19 24
43 12 41 11 43 -22 73 -43 40 -60 100 -76 262 -6 67 -16 122 -20 122 -13 0
-11 -247 3 -292 20 -69 -1 -67 -93 8 -196 158 -226 191 -242 262 -10 49 -62
107 -172 192 -32 25 -94 75 -138 113 -81 67 -113 80 -123 52z m1084 -322 c5
-17 -26 -29 -40 -15 -6 6 -7 15 -3 22 9 14 37 9 43 -7z m-1058 -50 c0 -7 5
-13 12 -13 20 0 88 -52 88 -66 0 -8 -2 -14 -5 -14 -3 0 -39 26 -80 57 -46 35
-75 64 -75 75 0 17 2 17 30 -4 17 -12 30 -28 30 -35z m966 26 c18 -20 18 -21
0 -35 -19 -13 -19 -14 -1 -34 17 -18 17 -20 1 -26 -27 -10 -58 27 -61 75 -3
37 -1 41 19 41 13 0 31 -9 42 -21z m84 -40 c0 -15 -4 -19 -16 -15 -9 3 -18 6
-20 6 -2 0 -4 7 -4 15 0 8 9 15 20 15 14 0 20 -7 20 -21z m0 -71 c0 -13 -23
-5 -28 10 -2 7 2 10 12 6 9 -3 16 -11 16 -16z m-111 -2 c7 -8 9 -25 5 -40 -4
-19 -2 -28 10 -32 20 -8 21 -24 1 -24 -18 0 -31 24 -40 73 -8 39 3 49 24 23z
m-784 -36 c18 -19 17 -20 -7 -20 -26 0 -53 22 -41 33 12 12 30 7 48 -13z m895
-15 c0 -8 -4 -15 -9 -15 -13 0 -22 16 -14 24 11 11 23 6 23 -9z m-789 -72 c16
-42 6 -47 -30 -17 -30 25 -32 29 -15 35 30 12 34 10 45 -18z m713 -9 c20 -8
21 -24 1 -24 -18 0 -20 -17 -3 -22 16 -6 14 -68 -2 -78 -9 -6 -6 -13 13 -30
30 -26 28 -41 -4 -33 -29 8 -46 48 -29 68 10 12 10 18 -1 32 -18 21 -20 93 -3
93 7 0 19 -3 28 -6z m164 -43 c3 -8 -1 -12 -9 -9 -7 2 -15 10 -17 17 -3 8 1
12 9 9 7 -2 15 -10 17 -17z m-664 -59 c79 -63 336 -310 336 -323 0 -5 -9 -9
-19 -9 -14 0 -21 8 -23 28 -2 19 -8 26 -20 24 -28 -5 -68 22 -158 105 -47 43
-114 102 -148 131 -50 44 -62 60 -62 84 0 34 -1 35 94 -40z m732 44 c10 -8 17
-16 14 -19 -8 -8 -50 11 -50 23 0 14 13 13 36 -4z m-1131 -36 c4 -6 -5 -10
-19 -10 -14 0 -26 5 -26 10 0 6 9 10 19 10 11 0 23 -4 26 -10z m1140 -30 c4
-6 -7 -10 -24 -10 -17 0 -31 5 -31 10 0 6 11 10 24 10 14 0 28 -4 31 -10z
m-1105 -10 c0 -5 -4 -10 -10 -10 -5 0 -10 5 -10 10 0 6 5 10 10 10 6 0 10 -4
10 -10z m970 -22 c0 -13 -23 -5 -28 10 -2 7 2 10 12 6 9 -3 16 -11 16 -16z
m138 -48 c3 -9 -3 -11 -24 -6 -34 9 -74 33 -74 45 0 13 93 -24 98 -39z m-790
-32 c106 -86 305 -266 311 -282 2 -6 -13 4 -35 22 -21 18 -55 45 -74 60 -19
14 -72 59 -116 98 -45 39 -106 90 -137 112 -61 46 -75 62 -54 62 8 0 55 -33
105 -72z m-233 15 c33 -8 74 -21 91 -28 53 -23 367 -310 361 -329 -2 -5 -15
-19 -30 -29 -25 -20 -27 -20 -54 -2 -15 10 -91 73 -169 139 -78 67 -162 137
-188 156 -92 69 -106 82 -106 102 0 15 4 18 18 13 9 -5 44 -14 77 -22z m885
17 c0 -5 -4 -10 -9 -10 -6 0 -13 5 -16 10 -3 6 1 10 9 10 9 0 16 -4 16 -10z
m-85 -20 c3 -5 -3 -10 -14 -10 -25 0 -26 -6 -6 -27 20 -19 11 -30 -10 -13 -15
13 -20 42 -8 53 10 10 31 8 38 -3z m165 -19 c0 -5 -11 -11 -25 -13 -17 -4 -25
-1 -25 8 0 8 11 14 25 14 14 0 25 -4 25 -9z m60 -21 c0 -5 -7 -10 -15 -10 -8
0 -15 5 -15 10 0 6 7 10 15 10 8 0 15 -4 15 -10z m144 -6 c65 -17 95 -34 59
-34 -12 0 -34 5 -50 11 -15 6 -45 11 -67 10 -46 -1 -68 9 -40 20 27 11 30 11
98 -7z m-269 -34 c3 -5 1 -10 -4 -10 -6 0 -11 5 -11 10 0 6 2 10 4 10 3 0 8
-4 11 -10z m70 0 c3 -5 2 -10 -4 -10 -5 0 -13 5 -16 10 -3 6 -2 10 4 10 5 0
13 -4 16 -10z m-161 -57 c24 -26 26 -33 13 -33 -24 0 -57 36 -57 62 0 12 3 18
8 13 4 -6 20 -25 36 -42z m281 27 c3 -6 -1 -13 -10 -16 -19 -8 -30 0 -20 15 8
14 22 14 30 1z m-181 -9 c3 -5 20 -11 38 -14 18 -3 53 -11 78 -18 25 -6 63
-13 85 -15 87 -5 186 -22 200 -34 8 -7 15 -22 15 -33 l0 -21 -19 21 c-15 16
-37 22 -93 27 -166 16 -347 63 -332 87 7 12 21 11 28 0z m556 -22 c10 -6 -35
-9 -127 -7 -103 3 -146 7 -155 17 -11 11 10 12 127 6 77 -4 147 -11 155 -16z
m214 -25 c34 -13 2 -24 -70 -24 -67 0 -94 10 -61 23 18 8 113 8 131 1z m-699
-37 c17 -9 81 -25 143 -38 61 -12 112 -26 112 -31 0 -20 -201 24 -303 66 -33
13 -53 26 -45 28 15 6 51 -4 93 -25z m1365 -1 c0 -2 -7 -6 -15 -10 -8 -3 -15
-1 -15 4 0 6 7 10 15 10 8 0 15 -2 15 -4z m-1585 -27 c11 -17 0 -20 -21 -4
-17 13 -17 14 -2 15 9 0 20 -5 23 -11z m1942 -45 c-6 -57 -20 -84 -42 -84 -24
0 -24 30 -2 73 46 86 52 88 44 11z m-1777 26 c0 -5 -4 -10 -10 -10 -5 0 -10 5
-10 10 0 6 5 10 10 10 6 0 10 -4 10 -10z m365 -30 c3 -5 -1 -10 -9 -10 -9 0
-16 5 -16 10 0 6 4 10 9 10 6 0 13 -4 16 -10z m1326 -17 c-8 -15 -10 -15 -11
-2 0 17 10 32 18 25 2 -3 -1 -13 -7 -23z m-1568 2 c65 -15 78 -22 59 -34 -14
-8 -132 29 -132 41 0 10 4 10 73 -7z m373 -4 c40 -18 65 -41 45 -41 -5 0 -12
4 -15 9 -3 5 -28 14 -56 21 -28 7 -53 16 -56 21 -9 15 39 9 82 -10z m834 -11
c0 -5 -4 -10 -9 -10 -6 0 -13 5 -16 10 -3 6 1 10 9 10 9 0 16 -4 16 -10z
m-583 -25 c14 -7 20 -16 14 -19 -6 -4 -19 -2 -30 4 -11 5 -38 10 -60 10 -45 0
-71 8 -71 22 0 13 114 0 147 -17z m-485 -45 c13 0 30 -5 38 -11 17 -12 -53 -7
-128 9 -64 14 -74 30 -14 24 34 -3 52 0 57 9 6 9 10 7 16 -9 5 -14 17 -22 31
-22z m-665 -7 c2 -6 -10 -18 -26 -26 -35 -18 -35 -17 -19 18 11 26 38 31 45 8z
m838 -24 c5 -5 -3 -9 -20 -9 -41 0 -76 11 -70 20 6 10 76 1 90 -11z m-605 -59
c-16 -31 -23 -18 -8 15 7 15 14 23 16 17 2 -6 -2 -21 -8 -32z m670 -10 c0 -5
-7 -7 -15 -4 -8 4 -15 8 -15 10 0 2 7 4 15 4 8 0 15 -4 15 -10z m-720 -67 c11
-14 20 -39 20 -55 0 -23 4 -29 16 -24 16 6 63 -14 101 -44 22 -17 22 -18 3
-35 -22 -20 -27 -45 -8 -45 6 0 22 10 35 22 20 18 27 20 41 10 9 -6 34 -21 55
-32 21 -12 42 -32 47 -45 8 -20 17 -25 43 -25 47 0 118 -26 148 -54 18 -17 34
-22 52 -19 25 5 108 -20 134 -40 10 -7 9 -17 -3 -45 -21 -49 -136 -418 -142
-457 -7 -48 -22 -53 -104 -38 -217 41 -498 112 -498 126 0 5 17 6 38 3 103
-18 115 -19 110 -5 -3 8 6 19 21 25 l26 12 -37 16 c-21 9 -45 16 -55 16 -22 0
-109 32 -120 44 -4 5 3 6 17 2 23 -6 68 -17 195 -46 83 -19 112 -22 118 -13 3
5 -45 24 -106 42 -62 18 -162 48 -223 67 -61 19 -121 34 -134 34 -18 0 -21 3
-13 11 8 8 31 6 85 -10 155 -43 177 -48 189 -41 8 6 1 12 -22 18 -62 19 -151
53 -173 66 -11 8 -36 17 -53 21 -18 4 -33 11 -33 16 0 12 10 9 142 -36 53 -19
121 -38 150 -44 29 -6 63 -13 75 -17 17 -5 25 0 38 26 15 30 15 32 -7 50 -13
11 -31 19 -41 20 -11 0 -51 11 -90 24 -147 50 -246 78 -264 73 -13 -3 -5 -10
28 -25 53 -23 71 -42 40 -42 -37 0 -91 40 -91 66 0 27 -40 50 -103 60 l-32 5
37 -20 c69 -39 58 -59 -18 -36 -67 20 -72 19 -41 -13 15 -15 27 -31 27 -35 0
-7 -110 43 -162 75 -48 29 -51 52 -5 43 32 -7 32 -7 13 13 -23 26 -20 34 51
139 64 96 123 153 157 153 15 0 26 7 29 20 7 25 34 17 43 -13 7 -25 43 -67 57
-67 5 0 4 7 -4 16 -10 13 -10 20 0 36 15 24 -1 48 -32 48 -16 0 -18 3 -9 12 7
7 42 15 79 19 44 4 71 12 77 22 9 14 13 13 38 -4 15 -11 36 -31 48 -46z m360
27 c0 -5 -6 -10 -14 -10 -8 0 -18 5 -21 10 -3 6 3 10 14 10 12 0 21 -4 21 -10z
m112 -24 c77 -24 282 -55 457 -70 150 -13 166 -17 190 -39 24 -23 33 -25 106
-23 44 2 91 6 105 10 58 16 194 -135 225 -251 18 -64 15 -87 -7 -65 -13 13
-49 15 -97 6 -24 -5 -35 -15 -46 -42 -8 -19 -15 -43 -15 -54 0 -15 -4 -18 -17
-13 -10 4 -33 11 -51 15 -19 5 -41 15 -50 23 -13 12 -22 13 -35 6 -21 -12 -43
1 -52 32 -8 23 -25 25 -25 3 0 -8 -4 -12 -10 -9 -5 3 -10 19 -10 34 0 20 7 31
25 39 27 13 34 32 11 32 -31 0 -46 -14 -52 -48 -10 -54 -22 -72 -48 -72 -18 0
-27 8 -35 32 -11 30 -12 31 -26 12 -14 -19 -14 -18 -15 3 0 27 -18 40 -26 18
-6 -14 -8 -14 -21 2 -10 13 -16 15 -19 6 -12 -28 -104 -3 -104 28 0 23 -15 25
-24 4 -8 -21 -28 -19 -59 5 -14 11 -34 20 -45 20 -11 0 -25 7 -33 16 -8 10
-21 13 -36 9 -23 -5 -23 -5 -10 26 21 53 34 54 119 15 42 -19 88 -38 102 -42
17 -4 26 -13 26 -25 0 -23 18 -25 27 -3 4 12 16 14 58 9 58 -8 106 8 86 28 -7
7 -18 7 -37 -2 -23 -10 -30 -9 -49 9 -12 11 -27 20 -33 20 -7 0 -20 17 -29 38
-40 86 -79 120 -117 100 -15 -8 -17 -18 -13 -50 4 -31 2 -38 -8 -34 -39 15
-97 26 -105 21 -6 -4 -13 1 -16 9 -3 8 -21 20 -39 26 -18 6 -39 18 -45 26 -7
7 -21 14 -31 14 -13 0 -19 7 -19 24 0 22 3 24 42 19 29 -4 39 -3 34 5 -4 7
-18 12 -31 12 -13 0 -27 5 -30 10 -3 6 -21 10 -40 10 -19 0 -37 5 -40 10 -3 6
-17 10 -30 10 -13 0 -27 5 -30 10 -3 6 -15 10 -26 10 -12 0 -17 4 -14 11 4 6
14 7 24 3 9 -4 34 -10 56 -15 22 -4 52 -11 68 -15 17 -4 27 -2 27 5 0 6 -11
11 -24 11 -14 0 -28 5 -31 10 -3 6 -17 10 -30 10 -13 0 -27 5 -30 10 -9 14 22
12 77 -4z m1438 -41 c0 -25 -57 -183 -71 -199 -5 -6 -9 1 -9 16 0 15 4 29 9
32 5 3 7 15 4 25 -3 11 2 30 11 43 9 12 16 32 16 45 0 33 19 75 30 68 5 -3 10
-17 10 -30z m-1565 -35 c6 -10 23 -8 63 7 6 3 12 0 12 -5 0 -6 -9 -14 -21 -17
-19 -7 -20 -7 -2 -21 10 -7 13 -14 6 -14 -15 0 -82 42 -83 53 0 11 18 9 25 -3z
m821 -15 c16 -12 16 -14 3 -15 -9 0 -22 7 -29 15 -16 19 0 19 26 0z m137 2
c15 -10 9 -12 -35 -11 -66 1 -71 2 -63 14 9 14 78 12 98 -3z m517 -178 c0 -5
-4 -9 -10 -9 -5 0 -10 7 -10 16 0 8 5 12 10 9 6 -3 10 -10 10 -16z m-2394
-140 c3 -6 22 -17 40 -25 39 -16 45 -34 11 -34 -21 0 -77 46 -77 63 0 11 18 8
26 -4z m2211 -21 c-3 -7 -5 -2 -5 12 0 14 2 19 5 13 2 -7 2 -19 0 -25z m-2237
-28 c0 -5 -4 -10 -10 -10 -5 0 -10 5 -10 10 0 6 5 10 10 10 6 0 10 -4 10 -10z
m2292 -20 c34 0 118 -92 118 -130 0 -26 -33 -4 -94 64 -36 41 -66 78 -66 82 0
4 5 3 12 -4 7 -7 20 -12 30 -12z m-2122 -15 c15 -16 19 -25 10 -25 -15 0 -50
29 -50 42 0 15 16 8 40 -17z m95 5 c-3 -5 -10 -10 -16 -10 -5 0 -9 5 -9 10 0
6 7 10 16 10 8 0 12 -4 9 -10z m1155 -22 c0 -6 -7 -5 -15 2 -8 7 -15 17 -15
22 0 6 7 5 15 -2 8 -7 15 -17 15 -22z m-50 8 c0 -15 -37 -32 -47 -22 -9 8 17
36 33 36 8 0 14 -6 14 -14z m-1392 -15 c3 -8 -1 -12 -9 -9 -7 2 -15 10 -17 17
-3 8 1 12 9 9 7 -2 15 -10 17 -17z m343 4 c-1 -15 -24 -12 -29 3 -3 9 2 13 12
10 10 -1 17 -7 17 -13z m317 -24 c80 -21 90 -27 76 -41 -10 -10 -154 37 -154
51 0 11 -8 12 78 -10z m-498 -6 c33 -17 38 -25 16 -25 -14 0 -67 39 -53 40 4
0 21 -7 37 -15z m-100 -17 c0 -6 -6 -5 -15 2 -8 7 -15 14 -15 16 0 2 7 1 15
-2 8 -4 15 -11 15 -16z m1400 -29 c0 -35 -9 -41 -34 -24 -11 8 -28 15 -38 15
-15 0 -12 -7 13 -45 17 -25 33 -45 36 -45 3 0 12 8 19 18 10 13 13 14 14 3 0
-19 -29 -51 -47 -51 -8 0 -13 -12 -13 -31 0 -24 4 -30 17 -27 10 2 19 12 21
23 6 33 20 40 27 12 9 -36 -15 -82 -43 -81 -24 1 -29 -15 -10 -34 9 -9 9 -15
1 -23 -16 -16 -33 -2 -33 25 0 12 -3 25 -6 29 -8 7 -64 -72 -64 -90 0 -20 -18
-15 -30 7 -6 11 -15 20 -20 20 -20 0 -9 -41 16 -67 20 -20 23 -28 12 -34 -18
-12 -45 -11 -53 1 -3 6 -1 10 4 10 6 0 11 7 11 15 0 8 -6 15 -14 15 -22 0 -25
23 -9 65 8 22 16 51 16 65 2 28 66 160 77 160 4 0 10 -7 14 -15 9 -24 26 -18
26 9 0 16 -7 27 -21 31 -15 5 -19 12 -15 28 3 12 6 30 6 41 0 15 5 17 30 13
16 -4 32 -2 35 2 3 5 16 4 30 -2 17 -8 25 -20 25 -38z m1071 5 c42 -21 151
-95 147 -100 -6 -6 -237 110 -238 119 0 11 57 -1 91 -19z m-2381 -9 c10 -12
10 -15 -3 -15 -8 0 -20 7 -27 15 -10 12 -10 15 3 15 8 0 20 -7 27 -15z m-103
-21 c-9 -9 -28 6 -21 18 4 6 10 6 17 -1 6 -6 8 -13 4 -17z m78 -24 c3 -5 -3
-10 -14 -10 -11 0 -23 5 -26 10 -3 6 3 10 14 10 11 0 23 -4 26 -10z m312 -12
c18 -7 33 -16 33 -20 0 -11 -9 -9 -55 12 -45 21 -29 26 22 8z m-47 -32 c0 -11
-19 -15 -25 -6 -3 5 1 10 9 10 9 0 16 -2 16 -4z m-120 -21 c16 -19 0 -19 -26
0 -16 12 -16 14 -3 15 9 0 22 -7 29 -15z m210 -25 c0 -5 -4 -10 -9 -10 -6 0
-13 5 -16 10 -3 6 1 10 9 10 9 0 16 -4 16 -10z m80 -15 c14 -16 10 -18 -14 -9
-9 3 -16 10 -16 15 0 14 16 11 30 -6z m-100 -25 c0 -5 -4 -10 -9 -10 -6 0 -13
5 -16 10 -3 6 1 10 9 10 9 0 16 -4 16 -10z m184 4 c9 -3 16 -10 16 -15 0 -14
-24 -11 -46 6 -16 12 -17 14 -2 15 9 0 23 -3 32 -6z m-104 -24 c0 -5 -7 -10
-16 -10 -8 0 -12 5 -9 10 3 6 10 10 16 10 5 0 9 -4 9 -10z m970 -71 c0 -10 5
-29 11 -43 11 -23 8 -29 -31 -66 -48 -47 -66 -46 -26 0 28 34 33 69 14 99 -6
10 -8 26 -4 36 5 14 9 15 21 5 8 -7 15 -21 15 -31z m-1257 7 c19 -13 60 -31
90 -40 30 -9 67 -23 83 -31 16 -8 37 -15 47 -15 10 0 17 -8 17 -20 0 -24 8
-25 30 -5 13 12 26 13 56 7 33 -6 40 -12 42 -35 4 -30 17 -36 26 -12 6 17 36
21 36 5 0 -5 -4 -10 -10 -10 -5 0 -10 -7 -10 -17 0 -14 2 -14 20 2 28 26 37
11 17 -30 -22 -47 -5 -44 34 5 33 41 61 42 40 1 -15 -27 -7 -27 31 0 41 30 45
17 9 -33 -43 -61 -73 -118 -62 -118 5 0 20 14 33 30 13 17 38 49 56 71 17 23
32 46 32 52 0 8 3 8 10 1 8 -8 0 -31 -25 -75 -20 -35 -41 -69 -45 -74 -5 -6
-13 -23 -19 -38 -16 -41 5 -33 34 13 27 42 57 55 48 20 -9 -35 26 -23 41 15 8
19 20 35 25 35 17 0 13 -32 -9 -68 -20 -33 -26 -62 -12 -62 4 0 25 25 47 56
22 31 49 68 61 83 11 14 23 34 27 43 7 20 37 14 37 -7 0 -8 -10 -26 -23 -42
-13 -15 -37 -50 -55 -78 -17 -27 -39 -59 -47 -70 -8 -10 -15 -24 -15 -31 0 -6
-6 -17 -13 -23 -11 -8 -18 -6 -32 9 -10 11 -24 20 -30 20 -16 0 -68 -61 -111
-130 l-34 -55 6 43 c4 28 3 42 -5 42 -6 0 -20 -19 -32 -42 -12 -24 -55 -93
-95 -154 -41 -62 -74 -115 -74 -118 0 -15 24 -3 56 29 19 19 42 35 50 35 8 0
31 12 49 26 19 14 49 30 67 34 18 4 41 11 51 15 28 12 20 -9 -24 -59 -73 -82
-282 -226 -330 -226 -13 0 -37 -17 -60 -44 -23 -26 -50 -46 -68 -49 -47 -10
-94 -58 -109 -113 -8 -27 -18 -62 -23 -78 -5 -16 -7 -31 -5 -34 10 -10 26 11
36 46 5 21 16 46 24 57 15 20 15 20 16 -1 0 -12 -7 -38 -15 -57 -8 -20 -15
-46 -15 -58 0 -18 2 -19 15 -9 8 7 15 18 15 24 0 6 7 25 16 41 9 17 29 55 45
87 15 31 33 59 38 63 15 9 14 4 -13 -70 -16 -40 -21 -67 -15 -71 6 -3 11 -4
13 -3 17 23 46 82 56 112 12 37 30 51 30 22 0 -8 3 -15 7 -15 11 0 53 42 53
53 0 6 7 19 16 29 16 17 18 17 29 1 12 -16 15 -14 35 20 20 34 50 50 50 28 0
-5 -34 -47 -77 -93 -42 -45 -112 -126 -156 -178 -44 -52 -111 -122 -149 -156
-65 -58 -147 -168 -134 -181 3 -4 23 2 44 12 52 27 59 29 45 14 -15 -15 -17
-49 -4 -49 5 0 11 9 14 20 3 11 10 20 17 20 22 0 -29 -123 -59 -142 -12 -7
-21 -18 -21 -24 0 -18 -65 -71 -123 -100 -47 -24 -165 -100 -177 -115 -3 -3
-14 -11 -25 -17 -19 -10 -18 -11 8 -17 21 -6 47 0 95 21 91 40 89 39 70 17
-10 -11 -18 -28 -18 -39 0 -11 -9 -37 -20 -59 -11 -22 -20 -41 -20 -43 0 -2
16 6 35 18 35 22 76 24 82 4 2 -5 -13 -29 -33 -52 -33 -40 -39 -42 -89 -42
-29 0 -72 -7 -96 -16 -56 -21 -183 -23 -227 -5 -19 8 -35 23 -38 37 -3 12 -14
30 -25 40 -25 22 -24 38 3 56 21 14 21 15 5 57 -16 40 -16 42 0 39 11 -2 21
-20 29 -52 7 -27 17 -53 22 -58 17 -17 20 16 7 57 -7 22 -18 73 -24 113 -6 41
-18 87 -26 102 -19 37 -19 55 1 85 9 13 13 29 9 35 -9 15 34 130 52 137 7 3
13 13 13 22 0 9 11 34 25 56 42 69 75 134 75 147 0 6 -15 -2 -33 -20 -18 -18
-36 -32 -40 -32 -19 0 -1 33 63 119 39 52 70 98 70 103 0 17 -21 7 -60 -28
-22 -20 -43 -35 -45 -32 -7 6 73 159 96 184 10 11 19 30 19 43 0 18 -4 21 -20
16 -25 -8 -25 1 0 43 24 39 27 77 5 69 -27 -11 -25 10 5 52 29 40 39 71 21 71
-5 0 -14 -7 -21 -15 -7 -8 -18 -15 -25 -15 -16 0 48 121 95 180 37 47 21 53
-29 10 -19 -16 -38 -27 -43 -24 -11 7 8 40 57 99 67 79 75 105 36 105 -9 0
-22 -13 -28 -30 -6 -16 -18 -30 -27 -30 -26 0 -19 16 39 82 30 34 55 66 55 70
0 13 -24 9 -48 -8 -13 -9 -25 -14 -28 -11 -8 7 69 125 86 133 22 9 114 113
107 120 -11 11 -71 -16 -89 -39 -9 -12 -20 -18 -25 -13 -8 9 130 144 182 177
42 27 104 25 148 -5z m242 14 c3 -5 -1 -10 -10 -10 -9 0 -13 5 -10 10 3 6 8
10 10 10 2 0 7 -4 10 -10z m955 -80 c-20 -28 -40 -39 -40 -23 0 10 42 53 52
53 5 0 0 -13 -12 -30z m-80 2 c0 -10 5 -23 11 -29 14 -14 3 -66 -13 -61 -14 5
-20 108 -7 108 5 0 9 -8 9 -18z m968 -51 c18 -25 21 -39 16 -78 -5 -44 -4 -47
10 -29 15 18 15 18 24 -5 19 -48 32 -96 32 -114 0 -19 10 -55 36 -129 12 -35
12 -42 -2 -57 -14 -16 -14 -18 4 -28 15 -8 27 -38 47 -123 53 -225 83 -396 94
-528 25 -292 39 -379 81 -485 6 -16 14 -73 16 -125 3 -52 10 -115 15 -140 6
-29 7 -55 1 -71 -8 -19 -4 -38 16 -84 21 -48 26 -77 26 -145 1 -97 -15 -143
-52 -148 -17 -3 -21 -8 -17 -22 4 -13 -2 -24 -19 -35 -31 -21 -60 -64 -58 -88
0 -10 -7 -21 -16 -24 -9 -3 -24 -12 -33 -19 -11 -10 -24 -11 -50 -4 -18 6 -51
10 -72 10 -21 0 -66 11 -100 24 -34 13 -72 27 -83 30 -31 9 -54 39 -60 78 l-6
35 86 -5 c60 -3 86 -1 86 7 0 6 -9 11 -21 11 -33 0 -117 31 -131 48 -11 14
-10 15 7 7 34 -14 85 -18 85 -6 0 6 -37 29 -81 52 -50 25 -83 48 -86 60 -3 10
-12 19 -19 19 -20 0 -17 34 5 61 l20 24 -42 42 c-44 46 -44 64 0 43 44 -20 92
-31 183 -41 164 -18 230 -21 257 -13 22 7 10 10 -57 15 -161 14 -214 25 -206
44 7 19 -8 19 -24 0 -17 -21 -38 -18 -89 13 -47 29 -56 41 -66 85 -3 15 -11
27 -18 27 -8 0 -24 11 -36 24 -22 23 -22 25 -4 35 17 10 17 12 -7 32 -14 12
-32 26 -41 33 -9 6 -20 27 -24 46 l-7 35 27 -25 c15 -14 33 -37 41 -52 10 -19
19 -25 33 -21 11 3 33 -3 49 -13 29 -16 62 -14 62 5 0 5 -10 11 -23 15 -12 3
-33 15 -46 27 -18 17 -22 29 -18 55 5 30 4 32 -9 19 -29 -29 -84 20 -84 75 0
14 -6 19 -22 17 -15 -1 -26 5 -33 21 -5 12 -18 22 -27 22 -21 0 -22 4 -6 30
16 25 2 39 -15 16 -11 -15 -15 -15 -24 -4 -21 25 -26 65 -9 71 23 9 21 58 -3
64 -19 5 -51 58 -51 85 0 7 -10 31 -21 53 -18 32 -20 48 -14 90 11 72 10 96
-6 132 -15 36 -7 52 15 33 9 -6 21 -10 28 -7 8 2 -26 44 -84 104 -54 54 -98
107 -98 117 0 22 24 69 44 85 16 14 22 41 9 41 -5 0 -18 -16 -31 -35 -41 -64
-59 -28 -22 45 48 94 122 180 155 180 26 0 63 22 73 44 22 50 135 166 195 202
34 21 77 50 95 66 17 15 56 34 85 43 28 8 59 20 67 25 22 14 24 13 48 -19z
m-1153 -1 c-3 -5 -10 -10 -16 -10 -5 0 -9 5 -9 10 0 6 7 10 16 10 8 0 12 -4 9
-10z m406 0 c28 -16 23 -25 -16 -27 -44 -2 -49 26 -7 36 2 1 12 -4 23 -9z
m-491 -10 c0 -5 -4 -10 -10 -10 -5 0 -10 5 -10 10 0 6 5 10 10 10 6 0 10 -4
10 -10z m-149 -103 c-13 -13 -26 -3 -16 12 3 6 11 8 17 5 6 -4 6 -10 -1 -17z
m69 -6 c0 -19 -37 -54 -49 -47 -9 6 -7 14 10 32 23 25 39 31 39 15z m132 -46
c-6 -14 -16 -25 -22 -25 -13 0 -13 13 2 45 8 17 15 22 21 16 7 -7 7 -19 -1
-36z m78 16 c0 -5 -7 -14 -15 -21 -13 -10 -15 -9 -15 9 0 12 6 21 15 21 8 0
15 -4 15 -9z m-320 -21 c0 -19 -20 -27 -33 -13 -8 7 11 33 24 33 5 0 9 -9 9
-20z m382 -12 c-6 -6 -16 -8 -22 -6 -9 3 -7 9 6 22 13 13 19 15 22 6 2 -6 0
-16 -6 -22z m138 -3 c-7 -9 -15 -13 -17 -11 -7 7 7 26 19 26 6 0 6 -6 -2 -15z
m213 -25 c-22 -39 -73 -88 -73 -72 0 12 77 102 87 102 2 0 -4 -14 -14 -30z
m240 -1 c-10 -16 -37 -51 -60 -77 -36 -40 -42 -44 -43 -25 0 12 21 45 51 77
56 61 80 73 52 25z m622 11 c3 -11 15 -20 26 -20 20 0 59 -33 59 -51 0 -5 -10
-3 -22 5 -12 9 -30 16 -38 16 -9 0 -24 16 -33 35 -9 19 -13 35 -8 35 6 0 13
-9 16 -20z m-1400 -54 c6 -35 5 -38 -8 -27 -13 10 -17 9 -26 -8 -14 -26 -14
-31 2 -31 7 0 28 -15 46 -34 l33 -34 -31 -7 c-17 -3 -33 -11 -36 -16 -11 -16
-44 -10 -67 13 -14 14 -23 18 -26 10 -2 -7 -8 -12 -13 -12 -16 0 -10 46 9 71
10 13 21 32 25 42 3 9 11 17 16 17 5 0 19 16 31 36 24 42 34 37 45 -20z m75
40 c0 -8 -9 -24 -20 -37 l-19 -24 -1 26 c0 24 16 49 32 49 4 0 8 -6 8 -14z
m55 -33 c-3 -16 -13 -35 -21 -43 -12 -12 -14 -12 -14 2 0 24 21 68 33 68 5 0
6 -12 2 -27z m308 0 c-9 -16 -40 -53 -68 -83 -29 -30 -57 -66 -64 -78 -10 -19
-18 -22 -38 -17 -20 5 -24 3 -20 -9 4 -11 1 -16 -11 -16 -23 0 -45 15 -41 28
7 18 151 183 156 178 3 -2 -12 -30 -32 -61 -20 -32 -34 -60 -31 -63 3 -2 41
29 83 71 43 42 79 77 81 77 1 0 -5 -12 -15 -27z m-168 -20 c-12 -17 -20 -23
-23 -15 -4 14 28 56 36 47 3 -2 -3 -17 -13 -32z m-79 -9 c-10 -14 -20 -23 -23
-21 -2 3 3 17 13 31 9 15 19 24 22 22 2 -3 -3 -17 -12 -32z m462 -1 c-12 -21
-44 -66 -70 -101 -27 -35 -69 -106 -94 -158 -25 -52 -50 -94 -55 -94 -11 0
-12 14 -2 24 4 4 8 24 8 45 1 30 9 46 34 72 18 18 41 51 51 73 10 23 34 57 55
76 20 19 45 50 56 68 12 17 25 32 31 32 5 0 -1 -17 -14 -37z m-129 -74 c-34
-52 -74 -108 -89 -126 -15 -17 -30 -37 -32 -43 -2 -8 -16 -4 -42 14 -21 14
-43 26 -48 26 -5 0 8 24 28 53 39 54 111 124 119 115 3 -3 -15 -31 -40 -63
-24 -32 -47 -67 -51 -77 -17 -53 35 -18 68 46 21 42 134 163 143 154 3 -3 -22
-48 -56 -99z m-449 15 c0 -13 -4 -24 -10 -24 -5 0 -10 14 -10 31 0 17 4 28 10
24 6 -3 10 -17 10 -31z m135 -3 c-6 -19 -42 -47 -50 -39 -2 2 8 18 22 36 27
35 39 36 28 3z m-75 -23 c0 -33 -16 -56 -30 -42 -7 7 -8 19 -1 37 13 33 31 35
31 5z m1310 -10 c0 -23 -3 -29 -11 -21 -6 6 -8 20 -4 32 9 30 15 26 15 -11z
m152 -61 c9 -17 8 -17 -21 -3 -30 16 -51 43 -51 67 0 14 57 -36 72 -64z m-120
-56 l-3 -51 51 0 c47 0 50 -2 50 -25 0 -25 14 -33 25 -15 12 19 33 10 59 -25
l27 -35 -19 -28 c-28 -38 -50 -109 -68 -215 -9 -51 -18 -94 -20 -96 -3 -3 -12
3 -22 12 -14 15 -18 41 -20 157 -2 77 -7 140 -11 140 -5 0 -13 -10 -18 -22
-10 -21 -11 -20 -17 17 -4 22 -12 58 -17 80 -29 113 -31 171 -5 162 7 -3 10
-24 8 -56z m194 -28 c21 -27 52 -63 68 -81 31 -33 31 -34 7 -30 -17 2 -40 25
-78 81 -58 85 -56 105 3 30z m-81 7 c10 -11 15 -23 12 -27 -8 -7 -47 25 -47
39 0 14 16 9 35 -12z m267 -191 c10 -5 26 -24 35 -42 15 -27 18 -76 24 -342 4
-173 3 -314 -2 -319 -5 -6 -9 3 -9 22 0 44 -26 92 -49 92 -20 0 -31 -19 -31
-51 0 -10 -4 -19 -10 -19 -5 0 -10 14 -10 30 0 18 -6 33 -15 36 -8 3 -17 22
-21 42 -3 21 -8 44 -10 52 -8 24 -22 -6 -29 -65 -11 -80 -24 -89 -25 -15 -1
114 -19 144 -39 64 -7 -26 -15 -43 -18 -40 -12 11 -3 80 12 96 11 12 13 32 8
83 -4 48 -2 75 7 93 10 17 10 28 3 35 -8 8 -16 2 -29 -20 -10 -16 -21 -28 -26
-25 -11 7 -10 74 1 110 5 16 12 46 16 66 4 30 11 39 31 44 22 6 24 10 18 36
-4 21 -3 28 5 24 6 -4 11 -13 11 -20 0 -20 47 -59 64 -53 24 10 19 27 -19 63
-19 18 -35 36 -35 40 0 9 119 -5 142 -17z m-3222 -160 c-16 -28 -32 -24 -18 6
6 13 15 22 19 19 5 -3 4 -14 -1 -25z m1980 -44 c0 -19 -4 -35 -10 -35 -5 0
-10 16 -10 35 0 19 5 35 10 35 6 0 10 -16 10 -35z m1017 -184 c-6 -67 -14 -88
-29 -73 -6 6 -6 17 1 30 6 11 11 39 11 61 0 24 5 41 11 41 8 0 10 -18 6 -59z
m-57 -36 c0 -8 -4 -15 -10 -15 -5 0 -10 7 -10 15 0 8 5 15 10 15 6 0 10 -7 10
-15z m210 -225 c0 -5 -4 -10 -10 -10 -5 0 -10 5 -10 10 0 6 5 10 10 10 6 0 10
-4 10 -10z m-1040 -199 c-1 -12 -5 -10 -20 8 -26 30 -26 49 0 26 11 -10 20
-25 20 -34z m-2300 -267 c0 -21 -4 -33 -10 -29 -17 10 -11 65 7 65 2 0 3 -16
3 -36z m538 -62 c3 -9 -2 -13 -14 -10 -9 1 -19 9 -22 16 -3 9 2 13 14 10 9 -1
19 -9 22 -16z m-48 -92 c0 -5 -6 -10 -14 -10 -8 0 -18 5 -21 10 -3 6 3 10 14
10 12 0 21 -4 21 -10z m1443 -71 c33 -15 67 -86 67 -139 0 -33 -3 -41 -15 -36
-11 4 -15 -2 -15 -24 0 -20 -5 -30 -15 -30 -18 0 -18 -5 -5 -30 8 -15 6 -21
-9 -29 -18 -10 -22 -21 -41 -106 -8 -39 -54 -179 -71 -220 -19 -44 -139 -413
-139 -426 0 -13 -34 -108 -51 -141 -5 -10 -9 -24 -9 -31 0 -7 -27 -96 -61
-198 -62 -190 -86 -232 -116 -207 -14 12 -14 35 0 133 9 61 38 168 137 505 55
190 103 356 106 370 3 14 9 34 14 45 5 11 11 31 14 45 2 14 16 63 31 110 14
47 33 112 41 145 7 33 25 92 39 130 14 39 25 82 25 97 0 15 8 31 18 37 22 13
26 13 55 0z m-1274 -56 c2 -25 -53 -73 -129 -113 -45 -23 -111 -64 -148 -91
-37 -27 -94 -69 -128 -94 -57 -42 -105 -60 -88 -34 5 9 -1 10 -20 5 -36 -9
-33 10 4 29 17 9 58 34 92 55 45 29 64 37 74 29 9 -7 16 -3 26 18 7 15 23 33
36 39 24 12 17 24 -21 37 -24 9 -141 -10 -245 -39 -68 -19 -91 -22 -125 -14
-23 5 -59 12 -79 15 -21 3 -38 9 -38 13 0 9 183 42 233 42 26 0 37 -4 37 -15
0 -20 10 -19 35 5 30 28 116 42 211 35 93 -7 121 4 208 84 45 41 50 43 57 25
4 -10 8 -24 8 -31z m-799 -14 c0 -5 -4 -9 -10 -9 -5 0 -10 7 -10 16 0 8 5 12
10 9 6 -3 10 -10 10 -16z m3302 -272 c-16 -23 -44 -52 -61 -66 -27 -21 -31
-22 -25 -5 4 10 19 33 34 49 15 17 38 46 51 65 19 28 24 31 27 16 2 -10 -9
-37 -26 -59z m-2662 -77 c0 -6 -10 -25 -22 -42 -23 -31 -146 -98 -180 -98 -9
0 -20 -4 -23 -10 -8 -13 -41 -13 -68 2 -21 11 -21 11 -2 19 11 4 32 8 48 8 55
2 168 54 201 93 31 38 46 47 46 28z m2681 -28 c-14 -27 -50 -56 -59 -48 -4 4
8 21 26 37 37 33 47 37 33 11z m-2830 -22 c-13 -11 -31 -20 -40 -20 -10 0 -6
7 14 20 39 26 57 25 26 0z m2439 -20 c0 -5 -11 -10 -24 -10 -14 0 -28 5 -31
10 -4 6 7 10 24 10 17 0 31 -4 31 -10z m94 -16 c9 -3 16 -10 16 -15 0 -14 -24
-11 -46 6 -16 12 -17 14 -2 15 9 0 23 -3 32 -6z m306 -19 c-7 -8 -17 -15 -23
-15 -5 0 -2 9 8 20 21 23 35 19 15 -5z m-95 -5 c-3 -5 -30 -10 -60 -10 -30 0
-57 5 -60 10 -4 6 18 10 60 10 42 0 64 -4 60 -10z m-2644 -67 c-28 -31 -51
-61 -51 -65 0 -14 58 20 103 60 l42 37 -43 -54 c-23 -29 -42 -58 -42 -62 0
-17 19 -9 53 21 19 17 38 30 42 30 9 0 -48 -73 -109 -140 -45 -47 -48 -55 -31
-58 14 -3 38 16 87 68 38 39 68 68 68 62 0 -5 -29 -49 -65 -97 -36 -48 -65
-91 -65 -96 0 -14 16 -11 30 6 7 9 15 14 17 11 2 -2 -19 -34 -47 -70 -55 -73
-56 -76 -37 -109 17 -31 25 -35 84 -43 56 -7 63 -24 11 -24 -18 0 -46 -5 -64
-12 -26 -9 -40 -8 -69 3 -34 13 -40 21 -66 93 -34 95 -35 96 -9 96 42 0 18 19
-27 22 l-48 3 58 18 c31 10 57 22 57 27 0 5 -28 10 -62 12 -62 3 -63 10 -4 23
45 10 13 25 -54 25 -39 0 -51 3 -40 10 8 5 32 10 52 10 20 0 40 5 43 10 3 6
16 11 28 11 34 2 -53 18 -100 18 -24 1 -43 6 -43 11 0 6 18 10 40 10 44 0 120
20 120 32 0 5 -46 8 -102 8 -57 0 -110 5 -118 10 -11 7 2 10 45 11 33 0 69 4
80 8 16 7 10 10 -29 16 -55 9 -47 19 24 30 25 4 77 18 115 31 39 14 80 22 93
19 13 -3 32 1 45 10 42 30 38 14 -12 -42z m2757 -30 c-20 -46 -28 -54 -48 -43
-28 15 -32 38 -6 33 13 -3 29 3 40 16 25 28 28 26 14 -6z m-73 -78 c28 -13 65
-39 83 -58 l33 -35 -21 -63 c-12 -35 -26 -72 -32 -82 -7 -13 -6 -23 1 -30 13
-13 46 15 68 56 20 40 28 26 15 -25 -6 -24 -13 -55 -16 -69 -7 -32 -43 -49
-105 -49 -34 0 -56 6 -72 20 l-24 19 27 1 c60 0 40 28 -59 80 -34 17 -72 43
-84 57 l-24 24 25 -13 c14 -7 43 -25 65 -40 39 -26 110 -51 90 -31 -11 11
-151 128 -204 170 -83 67 31 19 153 -64 45 -30 95 -45 82 -24 -4 5 -41 35 -83
67 -75 57 -88 90 -15 41 43 -29 103 -48 132 -40 26 7 26 23 0 23 -41 0 -150
68 -150 93 0 12 56 -1 115 -28z m-392 -134 c46 -51 70 -88 65 -101 -3 -8 -89
89 -111 126 -16 28 12 13 46 -25z m147 19 c0 -5 -2 -10 -4 -10 -3 0 -8 5 -11
10 -3 6 -1 10 4 10 6 0 11 -4 11 -10z m-2710 -110 c0 -5 -9 -10 -20 -10 -11 0
-20 5 -20 10 0 6 9 10 20 10 11 0 20 -4 20 -10z m20 -60 c0 -5 -4 -10 -10 -10
-5 0 -10 5 -10 10 0 6 5 10 10 10 6 0 10 -4 10 -10z m2815 -48 c-6 -7 -35 18
-35 31 0 5 9 2 20 -8 11 -10 18 -20 15 -23z m-2781 -26 c8 -18 19 -37 25 -41
7 -4 23 -24 36 -45 19 -31 33 -40 62 -45 108 -17 111 -21 78 -81 -14 -27 -34
-61 -43 -76 -14 -23 -15 -31 -4 -48 10 -17 9 -23 -8 -40 -26 -26 -42 -25 -35
3 4 17 -2 27 -30 46 -19 13 -35 27 -35 31 0 3 23 17 50 30 95 44 90 73 -5 34
-68 -28 -109 -28 -57 -1 41 22 33 37 -21 37 -39 1 -41 2 -22 15 37 26 45 36
45 50 0 11 -12 15 -45 15 -25 0 -45 5 -45 10 0 6 9 10 20 10 25 0 25 6 -1 64
-11 26 -30 51 -42 56 -18 7 -14 9 20 9 39 1 44 -2 57 -33z m2916 -38 c30 -6
59 -14 65 -19 5 -5 12 -29 15 -54 6 -53 22 -63 31 -20 l6 30 7 -26 c10 -34 2
-189 -13 -259 -29 -135 -31 -154 -22 -159 5 -4 9 -31 9 -61 -1 -30 2 -121 7
-201 7 -124 5 -153 -8 -186 -15 -39 -15 -41 12 -94 15 -30 35 -67 45 -82 10
-15 15 -31 11 -35 -4 -4 -12 2 -19 12 -29 49 -85 100 -134 122 -62 27 -92 30
-92 10 0 -13 32 -34 155 -101 53 -29 108 -82 130 -125 10 -21 12 -30 4 -23
-19 18 -39 16 -39 -4 0 -10 23 -51 50 -91 28 -41 50 -82 50 -93 0 -29 -14 -23
-28 13 -18 50 -37 23 -26 -39 11 -64 11 -66 -3 -70 -7 -3 -14 15 -18 49 -9 67
-56 200 -73 206 -10 3 -12 -16 -7 -90 6 -109 -10 -80 -20 36 -8 84 -21 131
-47 169 -30 42 -50 35 -27 -10 20 -39 26 -93 10 -93 -5 0 -13 15 -16 32 -9 40
-50 124 -66 134 -9 5 -10 0 -5 -17 15 -46 18 -89 8 -89 -6 0 -14 17 -17 38
-14 82 -45 108 -45 36 0 -19 -4 -34 -10 -34 -16 0 -23 46 -16 103 6 47 3 60
-24 112 -17 32 -28 60 -25 63 3 3 22 -11 43 -31 21 -20 48 -37 60 -37 21 0 22
2 10 23 -7 12 -13 66 -14 122 -3 112 1 105 -96 157 -61 32 -88 71 -88 127 0
35 15 42 23 11 3 -10 21 -27 40 -36 35 -17 35 -17 15 -34 -21 -17 -19 -18 77
-66 55 -27 103 -51 108 -53 5 -2 1 11 -7 28 -10 19 -39 44 -73 63 -62 35 -58
47 9 25 29 -10 44 -12 47 -5 4 12 -38 47 -56 48 -17 0 -17 20 0 20 7 0 18 -5
24 -11 8 -8 13 -8 17 0 11 17 -1 29 -55 56 -59 30 -64 46 -9 32 22 -6 43 -8
46 -4 10 10 -23 77 -37 77 -6 0 -8 8 -4 20 5 16 2 20 -17 20 -44 0 -52 17 -11
23 21 3 61 15 88 28 40 18 46 23 28 26 -12 3 -37 -4 -55 -13 -20 -11 -64 -19
-115 -22 -46 -2 -80 -8 -77 -13 3 -5 19 -9 37 -9 24 0 28 -3 19 -12 -30 -30
-161 52 -199 125 -19 38 -11 44 29 19 50 -30 134 -52 204 -52 64 0 91 13 53
25 -23 8 -16 20 16 28 19 5 19 5 -2 12 -13 4 -23 11 -23 16 0 4 14 3 31 -3 40
-14 43 -8 22 36 -12 23 -25 36 -39 36 -11 0 -29 9 -39 20 -18 20 -17 20 9 20
16 0 41 -8 57 -17 23 -13 31 -15 41 -5 9 9 9 15 0 24 -7 7 -12 19 -12 28 0 9
-12 22 -26 28 -30 14 -22 37 10 27 11 -4 46 -11 76 -17z m-147 -19 c-8 -8 -16
-8 -30 0 -16 9 -14 10 12 11 21 0 26 -3 18 -11z m57 -13 c0 -11 -19 -15 -25
-6 -3 5 1 10 9 10 9 0 16 -2 16 -4z m-2750 -296 c0 -5 -4 -10 -10 -10 -5 0
-10 5 -10 10 0 6 5 10 10 10 6 0 10 -4 10 -10z m-51 -72 c35 -26 81 -23 132
11 24 17 45 28 47 27 1 -2 -15 -40 -38 -84 -42 -84 -47 -102 -30 -102 6 0 10
-13 10 -30 0 -36 12 -38 33 -7 13 20 16 20 22 5 7 -18 -73 -144 -120 -188 -14
-13 -25 -29 -25 -37 0 -17 5 -16 35 3 14 9 25 14 25 10 0 -3 -15 -34 -34 -68
-40 -74 -49 -108 -35 -128 10 -16 10 -15 52 41 7 10 30 20 52 24 32 5 38 4 28
-6 -14 -14 -18 -59 -6 -59 3 0 15 7 25 17 24 22 30 14 18 -26 -6 -22 -6 -40 1
-53 19 -36 -1 -41 -127 -29 -78 7 -122 7 -128 1 -14 -14 -26 -12 -26 5 0 20
-22 65 -32 65 -12 0 -10 -44 3 -57 8 -8 8 -17 0 -31 -6 -11 -8 -28 -5 -36 4
-10 1 -16 -8 -16 -8 0 -23 -18 -33 -41 -10 -22 -33 -63 -51 -91 -26 -40 -35
-48 -40 -35 -9 25 -21 20 -27 -12 -6 -30 -37 -52 -37 -26 0 8 -4 15 -10 15 -5
0 -10 -8 -10 -18 0 -25 -30 -61 -36 -44 -8 18 -22 15 -29 -7 -6 -21 -34 -28
-147 -37 -74 -7 -96 9 -29 20 45 7 73 32 51 46 -11 7 1 16 43 35 32 14 61 25
66 25 43 0 170 157 207 257 25 67 51 103 77 103 23 0 58 51 70 101 10 38 57
119 70 119 7 0 19 4 26 9 12 8 6 19 -31 58 -71 77 -87 122 -25 73 31 -25 63
-26 76 -2 13 25 -25 104 -85 177 -28 33 -54 66 -59 74 -9 15 48 -16 94 -51z
m-89 -256 c0 -10 -7 -27 -16 -38 -14 -17 -15 -17 -10 -1 3 10 6 27 6 38 0 10
5 19 10 19 6 0 10 -8 10 -18z m30 -59 c0 -12 -41 -117 -50 -128 -4 -5 -10 -22
-14 -37 -3 -15 -22 -39 -41 -54 -19 -14 -53 -56 -76 -92 -49 -79 -48 -77 -55
-70 -10 11 24 73 74 135 28 34 71 105 96 158 24 52 50 95 55 95 6 0 11 -3 11
-7z m195 -143 c-23 -44 -30 -31 -8 15 10 20 19 32 21 26 2 -5 -4 -24 -13 -41z
m-325 -5 c-7 -9 -15 -13 -18 -10 -3 2 1 11 8 20 7 9 15 13 18 10 3 -2 -1 -11
-8 -20z m-560 -295 c0 -5 -13 -10 -30 -10 -16 0 -30 5 -30 10 0 6 14 10 30 10
17 0 30 -4 30 -10z m3343 -337 c-13 -2 -33 -2 -45 0 -13 2 -3 4 22 4 25 0 35
-2 23 -4z m-1 -45 c-8 -8 -17 -8 -34 0 -22 10 -21 11 12 11 26 1 31 -2 22 -11z
m108 -34 c0 -16 -16 -19 -25 -4 -8 13 4 32 16 25 5 -4 9 -13 9 -21z m638 2
c31 -22 31 -24 14 -40 -24 -21 -32 -20 -32 4 0 13 -7 20 -20 20 -22 0 -28 25
-7 33 6 3 12 6 13 6 0 1 14 -10 32 -23z m-468 -52 c0 -8 -4 -12 -10 -9 -5 3
-10 10 -10 16 0 5 5 9 10 9 6 0 10 -7 10 -16z m544 -103 c-4 -36 -2 -66 5 -79
8 -15 7 -23 -4 -32 -13 -10 -19 -10 -33 4 -10 9 -26 16 -35 16 -10 0 -25 9
-34 20 -15 17 -26 19 -92 14 -70 -5 -75 -4 -57 10 11 9 30 16 42 16 12 0 31 3
41 7 13 6 1 11 -42 19 -57 11 -59 11 -33 22 15 6 74 15 130 19 76 6 102 12
100 21 -1 8 2 11 8 7 7 -4 8 -27 4 -64z m-44 -121 c12 -7 12 -12 0 -35 -12
-22 -19 -26 -43 -21 -16 3 -36 6 -44 6 -8 0 -11 5 -8 10 3 6 15 10 26 10 12 0
19 7 19 20 0 21 24 27 50 10z"/>
<path d="M2340 6060 c0 -5 5 -10 10 -10 6 0 10 5 10 10 0 6 -4 10 -10 10 -5 0
-10 -4 -10 -10z"/>
<path d="M2303 6002 c-20 -27 -20 -31 -6 -51 21 -30 57 -24 61 10 2 14 -5 36
-15 48 l-18 22 -22 -29z"/>
<path d="M2013 5930 c-10 -15 -10 -22 4 -35 14 -14 18 -15 30 -2 12 12 13 18
1 36 -16 26 -20 26 -35 1z"/>
<path d="M1950 5880 c11 -21 48 -45 57 -36 6 6 -47 55 -60 56 -4 0 -3 -9 3
-20z"/>
<path d="M2070 5870 c0 -5 5 -10 12 -10 6 0 20 -8 30 -17 13 -12 22 -13 29 -6
8 8 4 15 -12 27 -26 18 -59 21 -59 6z"/>
<path d="M1900 5852 c0 -13 23 -32 38 -32 7 0 10 4 7 10 -9 14 -45 32 -45 22z"/>
<path d="M2222 5848 c-7 -7 -12 -18 -12 -24 0 -17 40 -44 65 -44 18 1 16 4
-10 25 -30 25 -30 25 -7 31 12 4 22 10 22 15 0 13 -44 11 -58 -3z"/>
<path d="M2026 5831 c-4 -6 -1 -11 7 -11 8 0 22 -8 31 -19 16 -17 16 -19 -6
-25 -23 -6 -23 -6 -3 -22 11 -8 44 -22 72 -30 29 -8 55 -20 58 -25 4 -5 15 -9
26 -9 10 0 27 -4 37 -9 95 -48 312 -107 312 -85 0 5 -69 32 -153 61 -275 93
-300 103 -285 119 6 6 123 -32 206 -67 23 -10 42 -14 42 -9 0 11 -58 39 -195
92 -121 48 -141 53 -149 39z"/>
<path d="M2415 5802 c-10 -7 -35 -48 -35 -57 0 -14 39 -2 58 18 17 18 19 26
10 35 -14 14 -19 15 -33 4z"/>
<path d="M1888 5760 c-2 -29 1 -45 12 -55 23 -21 39 -18 33 5 -3 12 2 29 11
39 18 20 10 33 -30 45 -20 6 -22 2 -26 -34z"/>
<path d="M2000 5790 c0 -5 7 -10 16 -10 8 0 12 5 9 10 -3 6 -10 10 -16 10 -5
0 -9 -4 -9 -10z"/>
<path d="M2860 5740 c0 -11 7 -20 15 -20 13 0 14 4 5 20 -6 11 -13 20 -15 20
-3 0 -5 -9 -5 -20z"/>
<path d="M2439 5729 c-10 -6 -7 -9 14 -9 29 0 35 5 14 13 -8 3 -20 1 -28 -4z"/>
<path d="M2615 5730 c-4 -6 3 -10 14 -10 25 0 27 6 6 13 -8 4 -17 2 -20 -3z"/>
<path d="M2405 5680 c4 -6 11 -8 16 -5 14 9 11 15 -7 15 -8 0 -12 -5 -9 -10z"/>
<path d="M2622 5679 c2 -6 8 -10 13 -10 5 0 11 4 13 10 2 6 -4 11 -13 11 -9 0
-15 -5 -13 -11z"/>
<path d="M2488 5658 c9 -9 15 -9 24 0 9 9 7 12 -12 12 -19 0 -21 -3 -12 -12z"/>
<path d="M2850 5620 c0 -5 5 -10 10 -10 6 0 10 5 10 10 0 6 -4 10 -10 10 -5 0
-10 -4 -10 -10z"/>
<path d="M2600 5580 c0 -5 5 -10 10 -10 6 0 10 5 10 10 0 6 -4 10 -10 10 -5 0
-10 -4 -10 -10z"/>
<path d="M2630 5520 c0 -5 7 -10 16 -10 8 0 12 5 9 10 -3 6 -10 10 -16 10 -5
0 -9 -4 -9 -10z"/>
<path d="M2840 5520 c0 -5 7 -10 16 -10 8 0 12 5 9 10 -3 6 -10 10 -16 10 -5
0 -9 -4 -9 -10z"/>
<path d="M2750 5472 c-30 -25 -22 -56 12 -43 25 9 36 37 21 52 -6 6 -19 3 -33
-9z"/>
<path d="M2650 5330 c0 -5 14 -10 31 -10 17 0 28 4 24 10 -3 6 -17 10 -31 10
-13 0 -24 -4 -24 -10z"/>
<path d="M2527 5324 c-11 -12 3 -24 28 -24 13 0 27 5 30 10 3 6 0 10 -9 10 -8
0 -21 2 -28 5 -8 3 -17 3 -21 -1z"/>
<path d="M2610 5291 c0 -6 7 -11 15 -11 9 0 27 -7 40 -16 25 -16 71 -16 68 1
-2 9 -31 19 -95 32 -17 3 -28 1 -28 -6z"/>
<path d="M2840 5290 c0 -5 5 -10 10 -10 6 0 10 5 10 10 0 6 -4 10 -10 10 -5 0
-10 -4 -10 -10z"/>
<path d="M2506 5271 c-7 -10 7 -16 28 -12 4 1 14 -4 22 -10 16 -13 33 -4 18
10 -15 16 -61 23 -68 12z"/>
<path d="M3005 5980 c-3 -5 1 -10 10 -10 9 0 13 5 10 10 -3 6 -8 10 -10 10 -2
0 -7 -4 -10 -10z"/>
<path d="M3545 5930 c3 -5 10 -10 16 -10 5 0 9 5 9 10 0 6 -7 10 -16 10 -8 0
-12 -4 -9 -10z"/>
<path d="M3625 5870 c3 -5 33 -10 65 -10 32 0 62 5 65 10 4 6 -20 10 -65 10
-45 0 -69 -4 -65 -10z"/>
<path d="M3790 5870 c0 -5 6 -10 14 -10 8 0 18 5 21 10 3 6 -3 10 -14 10 -12
0 -21 -4 -21 -10z"/>
<path d="M3050 5809 c0 -22 25 -54 33 -42 4 6 -2 22 -13 34 -14 18 -19 20 -20
8z"/>
<path d="M3765 5810 c-3 -5 3 -10 14 -10 12 0 21 5 21 10 0 6 -6 10 -14 10 -8
0 -18 -4 -21 -10z"/>
<path d="M3110 5784 c0 -8 5 -12 10 -9 6 4 8 11 5 16 -9 14 -15 11 -15 -7z"/>
<path d="M3150 5761 c0 -12 5 -21 10 -21 6 0 10 6 10 14 0 8 -4 18 -10 21 -5
3 -10 -3 -10 -14z"/>
<path d="M3715 5770 c-13 -6 8 -9 65 -9 58 -1 80 2 70 9 -18 12 -107 12 -135
0z"/>
<path d="M3433 5733 c-14 -5 -18 -33 -5 -33 14 1 42 27 35 33 -7 8 -12 8 -30
0z"/>
<path d="M3460 5675 c0 -8 5 -15 10 -15 6 0 10 7 10 15 0 8 -4 15 -10 15 -5 0
-10 -7 -10 -15z"/>
<path d="M3570 5680 c0 -5 16 -10 35 -10 19 0 35 5 35 10 0 6 -16 10 -35 10
-19 0 -35 -4 -35 -10z"/>
<path d="M3673 5673 c-15 -3 -23 -12 -23 -24 0 -21 20 -27 20 -6 0 6 6 3 12
-8 16 -30 17 -30 33 -9 14 19 14 18 15 -3 0 -12 5 -25 10 -28 6 -3 10 5 10 19
0 14 5 28 10 31 6 3 10 13 10 21 0 14 -44 17 -97 7z"/>
<path d="M3590 5624 c0 -8 5 -12 10 -9 6 4 8 11 5 16 -9 14 -15 11 -15 -7z"/>
<path d="M3100 5350 c0 -35 23 -41 40 -10 13 25 5 40 -21 40 -14 0 -19 -7 -19
-30z"/>
<path d="M3060 5261 c0 -12 5 -21 10 -21 6 0 10 6 10 14 0 8 -4 18 -10 21 -5
3 -10 -3 -10 -14z"/>
<path d="M2300 5090 c-7 -13 -7 -20 -1 -20 6 0 15 9 21 20 7 13 7 20 1 20 -6
0 -15 -9 -21 -20z"/>
<path d="M2351 5056 c-8 -9 -11 -19 -7 -23 9 -9 29 13 24 27 -2 8 -8 7 -17 -4z"/>
<path d="M2380 5000 c0 -5 5 -10 11 -10 5 0 7 5 4 10 -3 6 -8 10 -11 10 -2 0
-4 -4 -4 -10z"/>
<path d="M2490 4990 c-6 -11 -7 -20 -2 -20 10 0 32 21 32 32 0 16 -19 8 -30
-12z"/>
<path d="M2405 4969 c-12 -19 5 -23 22 -6 16 16 16 17 1 17 -9 0 -20 -5 -23
-11z"/>
<path d="M2510 4755 c7 -8 22 -15 34 -15 21 1 21 1 2 15 -27 21 -53 20 -36 0z"/>
<path d="M2324 4545 c-61 -69 -76 -77 -50 -26 9 16 16 36 16 43 0 20 -43 -31
-103 -122 -83 -126 -90 -135 -95 -122 -2 6 5 24 16 39 27 38 102 181 102 194
0 22 -25 -7 -87 -103 -76 -117 -109 -188 -89 -188 8 0 19 7 26 15 7 9 21 13
35 9 18 -4 29 2 50 30 22 29 31 34 55 30 24 -5 32 0 59 39 17 25 31 50 31 55
0 5 9 17 21 28 23 21 71 90 82 116 15 40 -15 24 -69 -37z"/>
<path d="M1825 3630 c-10 -11 -13 -20 -8 -20 13 0 38 29 31 35 -3 3 -13 -4
-23 -15z"/>
<path d="M1810 3535 c-13 -14 -19 -25 -13 -25 5 0 20 11 33 25 13 14 19 25 13
25 -5 0 -20 -11 -33 -25z"/>
<path d="M1920 3531 c0 -12 5 -21 10 -21 6 0 10 6 10 14 0 8 -4 18 -10 21 -5
3 -10 -3 -10 -14z"/>
<path d="M3950 4980 c-11 -7 -4 -10 25 -10 29 0 36 3 25 10 -8 5 -19 10 -25
10 -5 0 -17 -5 -25 -10z"/>
<path d="M3666 4837 c-20 -19 -36 -41 -36 -48 0 -8 -23 -41 -50 -74 -50 -60
-67 -91 -56 -103 10 -9 51 43 119 153 22 35 69 75 89 75 26 0 18 24 -9 28 -12
2 -35 -10 -57 -31z"/>
<path d="M3520 4750 c0 -5 5 -10 11 -10 5 0 7 5 4 10 -3 6 -8 10 -11 10 -2 0
-4 -4 -4 -10z"/>
<path d="M3677 4749 c-16 -9 -70 -109 -62 -117 2 -2 11 9 21 25 10 15 31 42
47 59 29 32 26 50 -6 33z"/>
<path d="M3535 4530 c-17 -18 -17 -20 -1 -20 9 0 19 7 23 15 9 25 -2 27 -22 5z"/>
<path d="M3440 4445 c0 -8 5 -15 10 -15 6 0 10 7 10 15 0 8 -4 15 -10 15 -5 0
-10 -7 -10 -15z"/>
<path d="M3555 4380 c-10 -11 -13 -20 -8 -20 13 0 38 29 31 35 -3 3 -13 -4
-23 -15z"/>
<path d="M4290 4245 c0 -8 5 -15 10 -15 6 0 10 7 10 15 0 8 -4 15 -10 15 -5 0
-10 -7 -10 -15z"/>
<path d="M3567 4015 c-4 -8 -2 -17 3 -20 6 -4 10 3 10 14 0 25 -6 27 -13 6z"/>
<path d="M3690 3970 c0 -5 5 -10 10 -10 6 0 10 5 10 10 0 6 -4 10 -10 10 -5 0
-10 -4 -10 -10z"/>
<path d="M3650 3924 c0 -8 5 -12 10 -9 6 3 10 10 10 16 0 5 -4 9 -10 9 -5 0
-10 -7 -10 -16z"/>
<path d="M4360 3496 c0 -9 5 -16 10 -16 6 0 10 4 10 9 0 6 -4 13 -10 16 -5 3
-10 -1 -10 -9z"/>
<path d="M4420 3325 c0 -19 5 -35 10 -35 6 0 10 16 10 35 0 19 -4 35 -10 35
-5 0 -10 -16 -10 -35z"/>
<path d="M4075 3250 c-3 -5 3 -10 15 -10 12 0 18 5 15 10 -3 6 -10 10 -15 10
-5 0 -12 -4 -15 -10z"/>
<path d="M4440 3240 c0 -5 5 -10 10 -10 6 0 10 5 10 10 0 6 -4 10 -10 10 -5 0
-10 -4 -10 -10z"/>
<path d="M4420 3164 c0 -8 5 -12 10 -9 6 3 10 10 10 16 0 5 -4 9 -10 9 -5 0
-10 -7 -10 -16z"/>
<path d="M4210 3100 c0 -5 7 -10 16 -10 8 0 12 5 9 10 -3 6 -10 10 -16 10 -5
0 -9 -4 -9 -10z"/>
<path d="M4436 3034 c-37 -56 -40 -72 -12 -61 12 5 66 97 66 113 0 16 -21 -4
-54 -52z"/>
<path d="M4375 2941 c-7 -12 12 -24 25 -16 11 7 4 25 -10 25 -5 0 -11 -4 -15
-9z"/>
<path d="M4365 2890 c-3 -5 -2 -10 4 -10 5 0 13 5 16 10 3 6 2 10 -4 10 -5 0
-13 -4 -16 -10z"/>
<path d="M4320 2830 c0 -5 7 -10 15 -10 8 0 15 5 15 10 0 6 -7 10 -15 10 -8 0
-15 -4 -15 -10z"/>
<path d="M4670 4056 c0 -14 5 -26 10 -26 6 0 10 9 10 19 0 11 -4 23 -10 26 -6
4 -10 -5 -10 -19z"/>
<path d="M4610 4032 c0 -26 4 -41 10 -37 13 8 13 45 0 65 -7 11 -10 3 -10 -28z"/>
<path d="M1645 2290 c-4 -6 5 -10 20 -10 15 0 24 4 20 10 -3 6 -12 10 -20 10
-8 0 -17 -4 -20 -10z"/>
<path d="M4427 1064 c-14 -15 -6 -34 14 -34 14 0 19 5 17 17 -3 18 -20 27 -31
17z"/>
<path d="M2270 7400 c0 -11 5 -20 10 -20 6 0 10 9 10 20 0 11 -4 20 -10 20 -5
0 -10 -9 -10 -20z"/>
<path d="M2525 7370 c3 -5 13 -10 21 -10 8 0 14 5 14 10 0 6 -9 10 -21 10 -11
0 -17 -4 -14 -10z"/>
<path d="M2370 7355 c0 -24 36 -37 54 -19 17 17 21 34 8 34 -4 0 -13 -5 -19
-11 -8 -8 -13 -8 -17 0 -10 16 -26 13 -26 -4z"/>
<path d="M3036 7345 c-19 -20 -20 -27 -4 -43 21 -21 48 -14 48 12 0 34 -24 51
-44 31z"/>
<path d="M2793 7333 c-20 -7 -15 -41 7 -53 15 -8 24 -6 40 10 29 29 26 50 -7
49 -16 0 -34 -3 -40 -6z"/>
<path d="M3611 7311 c-1 -27 2 -32 11 -23 8 8 8 17 0 34 -10 22 -11 21 -11
-11z"/>
<path d="M2565 7321 c-3 -5 -1 -12 5 -16 5 -3 10 1 10 9 0 18 -6 21 -15 7z"/>
<path d="M2525 7310 c-3 -5 1 -10 9 -10 9 0 16 5 16 10 0 6 -4 10 -9 10 -6 0
-13 -4 -16 -10z"/>
<path d="M3880 7292 c0 -14 23 -32 42 -32 21 0 23 11 6 28 -13 13 -48 16 -48
4z"/>
<path d="M2257 7274 c-4 -4 -7 -18 -7 -31 0 -27 25 -31 34 -6 7 18 -16 48 -27
37z"/>
<path d="M3255 7231 c-8 -14 37 -43 48 -32 15 15 0 41 -22 41 -11 0 -22 -4
-26 -9z"/>
<path d="M3540 7162 c0 -13 30 -52 41 -52 15 0 10 26 -9 43 -20 18 -32 22 -32
9z"/>
<path d="M2604 7125 c-3 -14 -4 -28 -1 -31 10 -10 27 7 27 26 0 30 -19 33 -26
5z"/>
<path d="M2695 7140 c3 -5 10 -10 16 -10 5 0 9 5 9 10 0 6 -7 10 -16 10 -8 0
-12 -4 -9 -10z"/>
<path d="M3012 7138 c-9 -9 -8 -16 5 -30 20 -22 36 -23 54 -2 11 14 10 18 -6
30 -23 17 -37 18 -53 2z"/>
<path d="M3841 7131 c-6 -10 -7 -21 -4 -25 9 -8 33 14 33 30 0 20 -18 17 -29
-5z"/>
<path d="M4087 7143 c-19 -5 -20 -34 -1 -40 15 -5 46 26 39 38 -6 9 -9 10 -38
2z"/>
<path d="M2781 7096 c-13 -15 4 -26 40 -26 23 0 25 25 3 34 -23 9 -30 8 -43
-8z"/>
<path d="M4130 7080 c0 -5 4 -10 9 -10 6 0 13 5 16 10 3 6 -1 10 -9 10 -9 0
-16 -4 -16 -10z"/>
<path d="M2270 7050 c0 -21 33 -60 50 -60 16 0 12 30 -5 36 -8 3 -17 14 -20
25 -8 25 -25 24 -25 -1z"/>
<path d="M3245 7046 c-13 -9 -16 -19 -11 -32 7 -17 9 -17 19 6 l11 25 4 -28
c3 -23 6 -26 18 -16 33 27 -6 71 -41 45z"/>
<path d="M2590 7043 c0 -12 51 -33 79 -33 31 0 21 10 -27 27 -43 15 -52 16
-52 6z"/>
<path d="M4197 7043 c-4 -3 -7 -17 -7 -30 0 -18 5 -23 25 -23 28 0 28 0 15 34
-9 26 -21 32 -33 19z"/>
<path d="M2715 7000 c-4 -6 5 -10 20 -10 15 0 24 4 20 10 -3 6 -12 10 -20 10
-8 0 -17 -4 -20 -10z"/>
<path d="M3505 6980 c-9 -30 2 -38 20 -14 13 17 14 17 15 2 0 -10 5 -18 11
-18 6 0 9 10 7 23 -4 30 -44 36 -53 7z"/>
<path d="M4018 6963 c-21 -5 -23 -24 -6 -41 16 -16 29 -15 22 2 -3 8 4 16 18
20 19 5 20 8 8 16 -8 5 -17 9 -20 9 -3 -1 -13 -3 -22 -6z"/>
<path d="M3020 6945 c0 -8 5 -15 10 -15 6 0 10 7 10 15 0 8 -4 15 -10 15 -5 0
-10 -7 -10 -15z"/>
<path d="M3795 6940 c-8 -13 12 -40 30 -40 18 0 38 27 26 34 -5 4 -13 1 -17
-5 -5 -9 -11 -7 -20 5 -8 12 -14 14 -19 6z"/>
<path d="M2275 6930 c4 -6 11 -8 16 -5 14 9 11 15 -7 15 -8 0 -12 -5 -9 -10z"/>
<path d="M2708 6928 c9 -9 15 -9 24 0 9 9 7 12 -12 12 -19 0 -21 -3 -12 -12z"/>
<path d="M4175 6930 c4 -6 11 -8 16 -5 14 9 11 15 -7 15 -8 0 -12 -5 -9 -10z"/>
<path d="M4235 6890 c3 -5 10 -10 16 -10 5 0 9 5 9 10 0 6 -7 10 -16 10 -8 0
-12 -4 -9 -10z"/>
<path d="M3206 6871 c-19 -31 35 -62 72 -42 12 6 34 11 51 11 17 0 31 5 31 10
0 6 -18 10 -39 10 -22 0 -43 5 -46 10 -9 15 -25 12 -25 -5 0 -8 -4 -15 -10
-15 -5 0 -10 7 -10 15 0 17 -16 20 -24 6z"/>
<path d="M4137 6873 c-11 -10 -8 -51 4 -59 17 -10 34 13 21 29 -9 10 -9 16 0
25 9 9 8 12 -3 12 -9 0 -19 -3 -22 -7z"/>
<path d="M2860 6850 c0 -5 14 -10 30 -10 17 0 30 5 30 10 0 6 -13 10 -30 10
-16 0 -30 -4 -30 -10z"/>
<path d="M4253 6849 c-35 -10 -53 -29 -28 -29 10 0 15 -7 13 -17 -2 -13 5 -19
23 -21 25 -3 26 -1 25 37 0 23 -1 41 -1 40 0 0 -14 -5 -32 -10z"/>
<path d="M2295 6828 c-4 -10 -4 -26 0 -35 8 -17 8 -17 12 0 3 9 3 25 0 35 -4
16 -4 16 -12 0z"/>
<path d="M2810 6821 c25 -21 70 -29 70 -12 0 5 -12 11 -27 13 -16 3 -37 8 -48
13 -16 5 -15 3 5 -14z"/>
<path d="M3467 6824 c-11 -11 -8 -54 3 -54 6 0 10 9 10 21 0 16 4 19 21 14 15
-5 20 -3 17 6 -5 15 -40 24 -51 13z"/>
<path d="M2900 6791 c0 -6 14 -11 31 -11 24 0 30 -4 27 -17 -4 -19 -41 -21
-123 -8 -50 9 -36 -7 20 -23 48 -14 265 -22 265 -10 0 4 -8 8 -18 8 -10 0 -40
14 -66 31 -49 33 -136 52 -136 30z"/>
<path d="M3735 6787 c-4 -10 -5 -21 -1 -24 10 -10 18 4 13 24 -4 17 -4 17 -12
0z"/>
<path d="M3774 6789 c-3 -6 -1 -16 5 -22 8 -8 11 -5 11 11 0 24 -5 28 -16 11z"/>
<path d="M3955 6784 c-15 -15 -15 -18 -1 -33 15 -14 18 -13 37 6 22 21 19 43
-6 43 -7 0 -21 -7 -30 -16z"/>
<path d="M4315 6791 c-3 -5 -1 -12 5 -16 5 -3 10 1 10 9 0 18 -6 21 -15 7z"/>
<path d="M4288 6733 c-17 -34 -10 -44 12 -18 6 8 10 22 8 32 -3 14 -7 11 -20
-14z"/>
<path d="M4230 6738 c-22 -10 -23 -12 -6 -15 10 -3 26 2 34 11 19 18 8 20 -28
4z"/>
<path d="M4065 6680 c-4 -6 6 -10 24 -10 16 0 33 5 36 10 4 6 -6 10 -24 10
-16 0 -33 -4 -36 -10z"/>
<path d="M3880 6640 c0 -5 16 -10 35 -10 19 0 35 5 35 10 0 6 -16 10 -35 10
-19 0 -35 -4 -35 -10z"/>
<path d="M4110 6640 c0 -5 6 -10 14 -10 8 0 18 5 21 10 3 6 -3 10 -14 10 -12
0 -21 -4 -21 -10z"/>
<path d="M3730 6626 c0 -8 4 -17 8 -20 13 -8 35 11 28 23 -10 16 -36 14 -36
-3z"/>
<path d="M2360 6603 c0 -21 3 -24 9 -14 5 8 7 20 4 28 -8 21 -13 15 -13 -14z"/>
<path d="M3897 6603 c-4 -3 -7 -13 -7 -20 0 -17 37 -9 60 13 12 12 10 14 -16
14 -17 0 -34 -3 -37 -7z"/>
<path d="M3216 6581 c-12 -19 3 -29 60 -41 57 -12 84 -9 84 10 0 22 -132 51
-144 31z"/>
<path d="M3412 6559 c2 -7 10 -15 17 -17 8 -3 12 1 9 9 -2 7 -10 15 -17 17 -8
3 -12 -1 -9 -9z"/>
<path d="M3900 6540 c0 -5 7 -10 16 -10 8 0 12 5 9 10 -3 6 -10 10 -16 10 -5
0 -9 -4 -9 -10z"/>
<path d="M3935 6500 c-4 -6 5 -10 20 -10 15 0 24 4 20 10 -3 6 -12 10 -20 10
-8 0 -17 -4 -20 -10z"/>
<path d="M3636 6462 c-3 -5 8 -9 24 -9 16 0 27 4 24 9 -3 4 -14 8 -24 8 -10 0
-21 -4 -24 -8z"/>
<path d="M3760 6410 c20 -13 57 -13 65 0 4 6 -11 10 -37 10 -31 0 -39 -3 -28
-10z"/>
<path d="M3656 6345 c-11 -8 -17 -17 -14 -20 9 -9 56 5 69 21 9 11 7 14 -12
14 -13 0 -33 -7 -43 -15z"/>
<path d="M3515 6330 c3 -5 15 -10 26 -10 10 0 19 5 19 10 0 6 -12 10 -26 10
-14 0 -23 -4 -19 -10z"/>
<path d="M3707 6314 c-3 -3 -30 -9 -59 -13 -41 -5 -54 -10 -56 -25 -3 -16 0
-18 19 -11 13 4 41 9 61 12 38 5 67 26 50 37 -5 3 -12 3 -15 0z"/>
<path d="M3610 6230 c-11 -7 -3 -10 30 -9 34 0 40 2 25 9 -27 12 -37 12 -55 0z"/>
<path d="M3430 6206 c0 -9 37 -12 55 -5 15 6 11 8 -17 8 -21 1 -38 -1 -38 -3z"/>
<path d="M3788 5428 c9 -9 15 -9 24 0 9 9 7 12 -12 12 -19 0 -21 -3 -12 -12z"/>
<path d="M3820 5370 c0 -5 5 -10 10 -10 6 0 10 5 10 10 0 6 -4 10 -10 10 -5 0
-10 -4 -10 -10z"/>
<path d="M5 1290 c-4 -6 15 -10 50 -10 35 0 54 4 50 10 -3 6 -26 10 -50 10
-24 0 -47 -4 -50 -10z"/>
<path d="M275 1243 c-46 -10 -51 -13 -35 -23 31 -20 170 -6 178 18 3 9 -13 12
-60 11 -34 -1 -72 -3 -83 -6z"/>
<path d="M320 1179 c-23 -10 -24 -11 -7 -21 10 -5 37 -7 60 -4 23 4 65 9 92
12 28 3 54 10 60 15 13 12 -173 10 -205 -2z"/>
<path d="M112 1118 c-14 -18 -6 -28 23 -28 13 0 29 -10 37 -22 l15 -22 51 22
c34 15 71 22 111 22 60 0 78 11 44 25 -10 5 -74 10 -143 13 -102 3 -128 1
-138 -10z"/>
<path d="M295 1060 c-16 -27 9 -32 114 -26 132 9 181 16 181 27 0 13 -287 11
-295 -1z"/>
<path d="M844 969 c12 -8 25 -8 40 -1 18 9 16 11 -19 11 -33 0 -37 -1 -21 -10z"/>
<path d="M3400 746 c0 -10 28 -13 41 -5 10 6 7 9 -13 9 -16 0 -28 -2 -28 -4z"/>
</g>
</svg>
